<?xml version="1.0" encoding="utf-8"?>
<!-- Generator: Adobe Illustrator 16.0.0, SVG Export Plug-In . SVG Version: 6.00 Build 0)  -->
<!DOCTYPE svg PUBLIC "-//W3C//DTD SVG 1.1//EN" "http://www.w3.org/Graphics/SVG/1.1/DTD/svg11.dtd">
<svg version="1.1" id="Layer_1" xmlns="http://www.w3.org/2000/svg" xmlns:xlink="http://www.w3.org/1999/xlink" x="0px" y="0px"
	 width="512px" height="512px" viewBox="0 0 512 512" enable-background="new 0 0 512 512" xml:space="preserve">
<path fill="none" stroke="#fff" stroke-width="15.5193" stroke-miterlimit="10" d="M365.772,449.932
	c0,17.158-13.909,31.067-31.067,31.067H177.295c-17.158,0-31.068-13.909-31.068-31.067V101.974c0-17.159,13.91-31.068,31.068-31.068
	h157.409c17.158,0,31.067,13.909,31.067,31.068V449.932z"/>
<rect fill="#fff" x="206.117" y="30.999" width="99.767" height="15.52"/>
<polygon fill="#fff" points="176.5,367.535 334.5,276.314 334.5,171.792 176.5,263.013 "/>
<path fill="#fff" d="M176.5,383.702V437.5c0,8.284,6.716,15,15,15h128c8.284,0,15-6.716,15-15V292.48L176.5,383.702z"/>
</svg>
