<svg xmlns:x="http://ns.adobe.com/Extensibility/1.0/"
     xmlns:i="http://ns.adobe.com/AdobeIllustrator/10.0/"
     xmlns:graph="http://ns.adobe.com/Graphs/1.0/"
     xmlns="http://www.w3.org/2000/svg"
     xmlns:xlink="http://www.w3.org/1999/xlink"
     version="1.1" viewBox="0 0 2600 1000" style="enable-background:new 0 0 2600 3412;"
     xml:space="preserve">
<style type="text/css">
	.st2 {fill:rgba(255,255,255,0.5);}
	._   {fill:none;stroke:rgba(255,255,255,0.5);stroke-width:2;stroke-miterlimit:10;}
	.st5 {fill:none;stroke:#fff;stroke-width:5;stroke-linecap:round;stroke-miterlimit:10;}
	.st7 {fill:none;stroke:#fff;stroke-width:5;stroke-miterlimit:10;}
	.st8 {fill:none;stroke:#c34;stroke-width:5;stroke-miterlimit:10;stroke-dasharray:2,2,2,2;}
	.st9 {fill:none;stroke:#fff;stroke-width:5;stroke-linecap:round;stroke-linejoin:bevel;stroke-miterlimit:10;}
	.st10{fill:none;stroke:#fff;stroke-width:5;stroke-linejoin:bevel;stroke-miterlimit:10;}
	.st11{fill:none;stroke:#fff;stroke-width:5;stroke-miterlimit:10;}
	.st12{fill:none;stroke:#c34;stroke-width:5;stroke-miterlimit:10;stroke-dasharray:2,2,2,2,2,2;}
	.st13{fill:none;stroke:rgba(255,255,255,0.5);stroke-linejoin:round;stroke-miterlimit:10;}
	.st14{fill:#c34;}
	.st15{fill:none;stroke:#fff;stroke-width:5;stroke-miterlimit:10;}
	.st17{fill:none;stroke:rgba(255,255,255,0.5);stroke-width:2;stroke-miterlimit:10;}
	.st18{fill:#c34;}
	.st19{fill:none;stroke:#c34;stroke-width:2;stroke-linecap:round;stroke-linejoin:round;stroke-miterlimit:10;}
	.st20{fill:none;stroke:#c34;stroke-width:5;stroke-linejoin:round;stroke-miterlimit:10;}
	.st21{fill:none;stroke:#fff;stroke-width:5;stroke-linejoin:round;stroke-miterlimit:10;}
	.st22{fill:rgba(255,255,255,0.5);stroke:#fff;stroke-width:2;stroke-miterlimit:10;}
</style>
<switch>
<g id="side">
	<path class="st15" d="M1297 222.9"/>
	<g>
		<polyline class="_" points="1322.5,634 1322.5,633.8 1322.5,371"/>
		<line class="_" x1="1940.5" y1="569" x2="1940.5" y2="388"/>
		<line class="st15" x1="1322.5" y1="371" x2="715.5" y2="367"/>
		<path class="st7" d="M1263 599c-4.523 0-8.652-4.165-11.685-7.52l-33.565-35.854c-4.86-5.718-9.75-11.873-11.75-20.626V414.5 c0-5.52 7.98-6.5 13.5-6.5h88c5.52 0 6.5 1 6.5 6.5v157.563c0 1.119-17.208 23.274-17.208 23.3 c-0.948 1.208-1.15 3.663-2.687 3.663C1282.997 599 1263 599 1263 599z"/>
		<path class="_" d="M1191.5 460.5c0 1.104-0.896 2-2 2h-40c-1.104 0-2-0.896-2-2v-28c0-1.104 0.896-2 2-2h40 c1.104 0 2 0.9 2 2V460.5z"/>
		<path class="_" d="M1085.5 460.5c0 1.104-0.896 2-2 2h-40c-1.104 0-2-0.896-2-2v-28c0-1.104 0.896-2 2-2h40 c1.104 0 2 0.9 2 2V460.5z"/>
		<line class="_" x1="796.3" y1="519.7" x2="752.7" y2="617.8"/>
		<path class="st15" d="M785.91 772.79c14.3 13.2 23.3 32.2 23.3 53.21c0 40.04-32.46 72.5-72.5 72.5s-72.5-32.46-72.5-72.5 c0-36.93 27.62-67.42 63.33-71.93"/>
		<path class="st15" d="M777.59 766.15c-8.82-6.051-19.05-10.19-30.09-11.841"/>
		<path class="st15" d="M744.5 799.12c11.65 3.4 20.2 14.1 20.2 26.88c0 15.46-12.54 28-28 28c-15.47 0-28-12.54-28-28 c0-12.98 8.84-23.91 20.83-27.07"/>
		<path class="st15" d="M744.5 805.44c8.29 3.1 14.2 11.2 14.2 20.56c0 12.15-9.85 22-22 22s-22-9.85-22-22 c0-9.64 6.2-17.83 14.83-20.8"/>
		<circle class="st15" cx="736.7" cy="826" r="2.5"/>
		<path class="st15" d="M1189.7 615.08c25.86-2.75 52.11-5.78 78.63-9.08c-108.05-36.57-186.38-60-272.06-74.16 c-2.8-0.46-5.6-0.92-8.42-1.359"/>
		<path class="st21" d="M759.51 531.82l-0.86 0.68l-47.98 37.83c-14.67 15.17-7.05 33.3 17.7 41 C803.29 634.9 934 636.5 1087.3 624.5H1087"/>
		<path class="st5" d="M766.36 527.52c1.59-0.689 3.35-1.369 5.27-2.02c40.54-13.74 152-17.63 223.9 7.5l7.84 3.31l0.33 0.1 l62.66 26.5l0.18 0.08l40.69 17.2l82.5 34.89c-8.42 0.899-16.8 1.78-25.13 2.61c-8.91 0.89-17.77 1.8-26.56 2.6 c-0.02 0-0.04 0.15-0.06 0.15s-0.03 0-0.05 0c-17.09 1-33.97 4.14-50.57 4.1"/>
		<line class="_" x1="610.1" y1="504.1" x2="527.3" y2="508"/>
		<line class="_" x1="615.7" y1="646.9" x2="532.9" y2="650.7"/>
		<line class="st15" x1="670.1" y1="682.4" x2="664.6" y2="682.6"/>
		<polyline class="st15" points="534.4,688.7 617.2,684.8 639.5,683.8"/>
		<polyline class="_" points="609.8,494.2 610.1,504.1 615.7,646.9 617.2,684.8 617.8,699.8"/>
		<polyline class="_" points="526.9,498 527.3,508 532.9,650.7 534.4,688.7 535,703.6"/>
		<polyline class="st21" points="561.1,496.5 582,495.5 582,495.5"/>
		<polyline class="st21" points="592.4,495 609.5,494.2 662.6,491.7 663,501.7 668.6,644.4 670.1,682.4 670.7,697.3"/>
		<path class="st21" d="M534.37 688.62c-17.95 0.54-25.91-5.23-38.03-17.23l-6.55-151.89c4.42-6.5 9.1-11.26 14.92-14.72 s12.79-5.601 21.79-6.88v0.109l22.99-1.06"/>
		<polyline class="st13" points="465.6,590.3 465.8,594 466.1,602.1"/>
		<line class="st13" x1="466.3" y1="608.2" x2="466.2" y2="605.1"/>
		<polyline class="st13" points="478.1,601.7 477.8,593.6 477.6,589.9"/>
		<line class="st13" x1="478.3" y1="607.7" x2="478.2" y2="604.7"/>
		<polyline class="st13" points="450.1,627.9 450.1,626.4 449.7,617.8 449.4,608.8 449.2,605.8 449.1,602.8 448.9,595.8 447.6,565"/>
		<path class="st9" d="M499.223 674.276l4.067 17.914c9.196 6.9 17.1 10.7 32.1 11.47l-0.41-0.03l82.85-3.84l52.89-2.45 c0.33-0.01 0.65-0.02 0.96-0.04l1.71-0.08c0.04 0 0.09-0.01 0.14-0.01"/>
		<path class="st15" d="M949.5 668.38c121.04-4.51 143.24-11.899 215.07-50.71"/>
		<path class="st15" d="M670.11 682.37c10 6.4 16.1 8 26.9 9.63l23.5-0.37"/>
		<path class="st15" d="M670.704 697.34c10.436-0.362 15.758-1.71 22.323-5.99"/>
		<path class="st15" d="M663.13 504.995c12.634-21.649 109.483-8.922 214.4 9.8"/>
		<path class="st15" d="M828.998 506.515c27.502-17.015 62.173-8.069 101 12"/>
		<line class="st15" x1="662.8" y1="497.5" x2="641.4" y2="498.5"/>
		<line class="st15" x1="663.4" y1="511.5" x2="641.9" y2="512.5"/>
		<line class="st15" x1="664.2" y1="532.5" x2="642.7" y2="533.5"/>
		<line class="st15" x1="665.2" y1="557.4" x2="643.7" y2="558.4"/>
		<line class="st15" x1="666.4" y1="587.4" x2="644.9" y2="588.4"/>
		<line class="st15" x1="667.5" y1="616.3" x2="646" y2="617.3"/>
		<line class="st15" x1="668.5" y1="641.2" x2="647" y2="642.3"/>
		<path class="st21" d="M641.13 492.71l0.02 0.44l0.21 5.38l5.37 137.35l0.54 13.62c6.89 2 13.4 2.1 21.6 2"/>
		<line class="st15" x1="2108.5" y1="110" x2="2108.5" y2="73"/>
		<line class="st15" x1="2155.5" y1="402" x2="2155.5" y2="110"/>
		<line class="st11" x1="2289" y1="402" x2="2155" y2="402"/>
		<line class="st11" x1="2279" y1="334" x2="2249" y2="334"/>
		<line class="st11" x1="2260" y1="222" x2="2249" y2="222"/>
		<polyline class="st11" points="2155,110 2108.5,110 2108,110"/>
		<path class="st15" d="M1917.353 384.707c9.678-2.44 15.954-4.463 20.314-14.707c84-193.333 136.667-316 218-308.599 C2235.882 68.7 2251 138 2289 402"/>
		<path class="st15" d="M2289 402c5.585 20.7 14.6 32.5 40.1 48.4"/>
		<polyline class="st15" points="949.5,661 949.5,668.4 949.5,689 949.5,689"/>
		<polyline class="st15" points="2145.5,532 2145.5,554 2145,554.3 2006,559"/>
		<!--
		<path class="_" d="M2145.5 532c-0.5-23.367 92.667-47.5 143.113-37.184"/>
		-->
		<line class="_" x1="991.7" y1="568.3" x2="925.8" y2="527.1"/>
		<line class="_" x1="1082.5" y1="624.9" x2="995.8" y2="570.8"/>
		<polyline class="_" points="930,526.5 930.2,526.5 992.2,565.2"/>
		<polyline class="_" points="997.1,568.3 997.3,568.5 997.4,568.5 1026.3,586.5"/>
		<polyline class="_" points="1048,564.5 1048.4,564.5 1048.4,564.5 1077.5,582.6"/>
		<polyline class="_" points="1107.2,580.2 1077.6,582.5 1077.5,582.5 1026.5,586.5 1026.5,586.5 1021.7,586.9"/>
		<polyline class="_" points="1066.5,563 1066.2,563 1048.4,564.5 1048.4,564.5 1048,564.5"/>
		<polyline class="_" points="997.4,568.4 997.3,568.4 996,568.5"/>
		<polyline class="_" points="925.8,527.1 930.2,526.8 963.5,524.2"/>
		<path class="_" d="M998.67 565c-0.51 1.15-1.02 2.24-1.53 3.27c-0.02 0.051-0.04 0.101-0.07 0.1 c-0.41 0.84-0.83 1.64-1.25 2.42c-3.09 5.62-6.76 9.73-14.15 14.16c-0.38 0.22-1.32-0.53-1-0.83c6.47-6.1 9.79-10.7 11.04-15.89 c0.25-1 0.41-2.021 0.51-3.08c0.08-0.82 0.11-1.66 0.11-2.53"/>
		<!--
		<path class="st19" d="M859.833 575c-8.754-0.813-14.917-2.103-21.333-5.334l22.5 0.5L859.833 575z"/>
		<line class="st19" x1="860.4" y1="572.8" x2="980.7" y2="584.2"/>
		-->
		<line class="_" x1="661" y1="401.5" x2="612" y2="401.5"/>
		<polyline class="_" points="713,401.5 669.5,401.5 669,401.5"/>
		<polyline class="_" points="603,397.5 549.2,397.5 549,397.5"/>
		<line class="_" x1="661" y1="397.5" x2="612" y2="397.5"/>
		<polyline class="_" points="719,463.5 718.5,463.5 713.5,463.5 669.5,463.5 661.2,463.5 606.3,463.5 576,463.5"/>
		<line class="_" x1="567" y1="463.5" x2="567" y2="463.5"/>
		<line class="_" x1="718.5" y1="468" x2="718.5" y2="367"/>
		<path class="_" d="M715.5 461.5c0 1.104-0.896 2-2 2h-44c-1.104 0-2-0.896-2-2v-58c0-1.104 0.896-2 2-2h44 c1.104 0 2 0.9 2 2V461.5z"/>
		<polyline class="_" points="667.5,367 667.5,370.6 667.5,371"/>
		<line class="_" x1="667.5" y1="396" x2="667.5" y2="375"/>
		<path class="_" d="M669.5 397.5c-1.1 0-2-0.9-2-2"/>
		<path class="_" d="M715.5 367v29v-0.5c0 1.1-0.9 2-2 2H669h44l0 0h-43.5H669"/>
		<path class="_" d="M667.5 370.578c14.82-0.73 29.98-1.108 48-1.218"/>
		<path class="_" d="M609.5 369v5.35v0.15v4v17c0 1.1 0.8 2 2 2h49.73c1.25 0 2.26-0.9 2.26-2V375"/>
		<polyline class="_" points="663.5,371 663.5,367.5 663.5,367"/>
		<path class="_" d="M546.5 379.1c14.45-4.35 33.56-7.459 59-9.5"/>
		<path class="_" d="M546.5 396c5.64-8.176 12.592-14.55 26.132-22.637"/>
		<path class="_" d="M549.18 397.5c-1.35 0-2.68-0.9-2.68-2"/>
		<line class="_" x1="603" y1="397.5" x2="549" y2="397.5"/>
		<path class="_" d="M605.5 395.5c0 1.1-1.1 2-2.45 2"/>
		<line class="_" x1="605.5" y1="370" x2="605.5" y2="396"/>
		<path class="_" d="M663.5 461.5c0 1.104-1.012 2-2.26 2H575.51c-1.248 0-2.01-0.896-2.01-2l36-58c0-1.104 0.762-2 2.01-2 h49.729c1.248 0 2.3 0.9 2.3 2V461.5z"/>
		<!--
		<line class="_" x1="719.5" y1="645" x2="719.5" y2="663"/>
		<path class="_" d="M719.5 645c-11.377 0.306-17.671 0.087-28-3.75"/>
		<path class="_" d="M719.5 663c-10.713 0.392-17.022-1.452-28-4.667"/>
		-->
		<polygon class="st15" points="743.5,361.5 727.5,361.5 726.5,366.5 744.5,366.5"/>
		<path class="st15" d="M742.5 362v-67c1-0.892 1.257-1.33 1.833-2c2.664-1.469 3.297-2.309 0.917-3.833 c-3.124-0.199-4.817-0.088-7.875 0.833c-1.881 1.241-3.23 2.53-4.438 4.667l-4.302 66.8"/>
		<line class="_" x1="774.4" y1="288.6" x2="2018.6" y2="140.1"/>
		<!--
		<g>
			<line class="st7" x1="990" y1="367" x2="998" y2="367"/>
			<line class="st7" x1="994" y1="366" x2="994" y2="361"/>
		</g>
		<line class="_" x1="993.5" y1="361" x2="993.5" y2="263"/>
		-->
		
			<ellipse transform="matrix(0.9205 0.3907 -0.3907 0.9205 320.3713 -203.5529)" class="st22" cx="660.5" cy="685.7" rx="2.8" ry="10.3"/>
		<path class="_" d="M625.98 664.05c-1.29-0.77-2.26-1.84-2.75-3.18c-0.5-1.38-0.44-2.87 0.1-4.34 c1.15-3.17 4.47-6.25 8.97-7.891c6.59-2.39 13.22-0.81 14.8 3.54c0.47 1.3 0.4 2.7 0 4.1"/>
		<path class="_" d="M655.693 695.245c-18.739-10.762-26.764-20.415-32.361-38.719"/>
		<path class="_" d="M644.755 649.244c4.268 13.5 7.7 20.8 19.8 26.9"/>
		<line class="st15" x1="720.5" y1="668" x2="949.5" y2="660.7"/>
		<path class="st10" d="M720.5 668v23.63V733l-0.5 0.5h101c3.6-18.6 9.5-28 32-35.5l96.5-9.03"/>
		<circle class="st2" cx="746.5" cy="632.7" r="5"/>
		<rect x="727.5" y="733.5" class="st15" width="20" height="61"/>
		<polyline class="st15" points="734,826.5 734.2,826.5 739,826.5"/>
		<polyline class="st15" points="729.5,823 729.5,822.5 729.5,794.5 744.5,794.5 744.5,823"/>
		<polyline class="_" points="730,822.5 729.5,822.5 726.5,822.5 726.5,829.5 730,829.5"/>
		<polyline class="_" points="744,829.5 747.5,829.5 747.5,822.5 744.5,822.5 744,822.5"/>
		<path class="_" d="M730.38 829.5c1.25 2.4 3.8 4 6.6 4s5.37-1.62 6.62-4"/>
		<path class="_" d="M730.38 822.5c1.25-2.38 3.75-4 6.62-4s5.37 1.6 6.6 4"/>
		<g>
			<g>
				
					<ellipse transform="matrix(0.9945 -0.1045 0.1045 0.9945 -3.5408 211.9821)" class="_" cx="2021.6" cy="139.8" rx="3" ry="1.9"/>
				
					<ellipse transform="matrix(0.9945 -0.1046 0.1046 0.9945 -3.3043 213.6285)" class="_" cx="2035.5" cy="138.3" rx="3" ry="1.9"/>
				
					<ellipse transform="matrix(0.9945 -0.1045 0.1045 0.9945 -3.0977 214.807)" class="_" cx="2048.4" cy="137" rx="3" ry="1.9"/>
			</g>
			<line class="_" x1="2024.1" y1="139.6" x2="2032" y2="138.8"/>
			<line class="_" x1="2038" y1="138.2" x2="2045" y2="137.5"/>
		</g>
		
			<ellipse transform="matrix(0.9945 -0.1046 0.1046 0.9945 -26.2025 80.9147)" class="_" cx="758.5" cy="290.3" rx="3" ry="1.9"/>
		
			<ellipse transform="matrix(0.9945 -0.1045 0.1045 0.9945 -25.9727 82.1948)" class="_" cx="771.4" cy="289" rx="3" ry="1.9"/>
		<line class="_" x1="747.1" y1="291.6" x2="755" y2="290.8"/>
		<line class="_" x1="761" y1="290.2" x2="768" y2="289.5"/>
		<!-- path class="st15" d="M905.5 368v-5v-0.417c0-1.519-1.231-2.75-2.75-2.75s-2.75 1.231-2.75 2.8"/ -->
		<path class="_" d="M1328.5 371.042c-0.051 14.9 132.9 15.4 133 0.5"/>
		<path class="_" d="M1328.5 368.042c-0.051 14.9 132.9 15.4 133 0.5"/>
		<!--
		<polyline class="_" points="1338.5,374 1338.5,374 1338.5,371.4 1338.5,357.1 1338.5,355"/>
		<line class="_" x1="1338.5" y1="351" x2="1338.5" y2="351"/>
		<line class="_" x1="1394.5" y1="379" x2="1394.5" y2="358"/>
		<polyline class="_" points="1394.5,356 1394.5,348.9 1394.5,346.9 1394.5,343.3 1394.5,343"/>
		<line class="_" x1="1397.5" y1="379" x2="1397.5" y2="358"/>
		<polyline class="_" points="1397.5,343 1397.5,343.3 1397.5,347"/>
		<line class="_" x1="1397.5" y1="356" x2="1397.5" y2="349"/>
		<path class="_" d="M1461.5 372v-2.42V351v-0.5c0-10.42-133-9.17-133 1.2"/>
		<path class="_" d="M1397.5 358.1c12.97-0.15 25.81-0.68 36.55-1.6"/>
		<path class="_" d="M1328.49 351.5c0.01 0 0 0 0 0.04v0.01c1 1.1 2.7 2 6 2.8"/>
		<path class="_" d="M1338.5 355.16c12.3 2.1 34.1 3.1 56 3"/>
		<path class="_" d="M1397.5 355.99c11.8-0.14 23.49-0.48 33.59-1.46"/>
		<path class="_" d="M1338.5 353.16c12.3 2.1 34.1 3.1 56 3"/>
		<path class="_" d="M1417 349.67c-6.86-0.39-13.36-0.63-19.5-0.74"/>
		<path class="_" d="M1338.5 353.16c12.79-2.84 31.41-4.6 56-4.28"/>
		<path class="_" d="M1417 347.67c-6.86-0.39-13.36-0.63-19.5-0.74"/>
		<path class="_" d="M1394.5 346.88c-24.59-0.32-43.21 1.44-56 4.28c-1.357 0.301-2.65 1.513-4 1.2 c-2.39-0.59-4.16-1.24-5.17-1.97"/>
		<path class="_" d="M1417 349.67c5.75 1.2 10.4 2.7 14.1 4.9"/>
		<path class="_" d="M1434.05 356.5c5.39 4.2 8.4 10.3 10.1 19.8"/>
		-->
		<line class="st15" x1="1322" y1="371" x2="1329" y2="370.9"/>
		<path class="st7" d="M609.5 374.35c17.674-4.867 31.661-6.979 54-6.85"/>
		<!-- line class="_" x1="663" y1="367.5" x2="667" y2="367.5"/ -->
		<path class="_" d="M609.5 378.5c39.813-2.938 65.753-4.902 106-5.137"/>
		<path class="_" d="M715.5 369.36c-18.02 0.11-33.18 0.56-48 1.29c-1.33 0.07-2.67 0.14-4 0.21c-16.89 0.89-33.63 2.14-54 3.6 "/>
		<path class="_" d="M670.5 371v-17v-0.22c7.06-3.71 36.94-3.71 44 0V354v15"/>
		<polyline class="st13" points="674.5,370 674.5,352.5 674.5,352"/>
		<polyline class="_" points="710.5,369 710.5,352.5 710.5,352"/>
		<path class="_" d="M478.753 437.087c45.977 12.4 71.8 18.7 98 30.413H577h141.5h0.5"/>
		<path class="_" d="M573.76 461.07h0.01c0.1 0 0.2 0.1 0.3 0.1"/>
		<path class="_" d="M604.99 401.5l-36.1 57.97c-15.17-5.029-30.74-10.47-52.75-16.46l25.85-41.51l0 0H542h63"/>
		<path class="_" d="M486.03 435.52c9.2 2.1 17.4 4.1 25 6.11l24.99-40.13H536h-24.94H511L486.03 435.52z"/>
		<path class="_" d="M562.958 375.322c-11.293 7.783-18.779 14.089-23.583 22.178H539h-25"/>
		<path class="st21" d="M494.67 631.67c-3.52-0.12-7.07-0.28-10.64-0.49"/>
		<path class="st21" d="M260.39 500.5c-13.73 8.32-24.67 16.91-31.89 25.42c-3.47 4.09-3.47 12 0 16.1 c32.2 38 138.6 77.5 234.8 87.5"/>
		<path class="st21" d="M276.51 491.5c16.19-8.37 34.98-16.3 55.33-23.41c47.16-16.49 102.67-28.57 153.34-31.41L514 397.5"/>
		<path class="st15" d="M514 397.5c6.84-7.68 16.98-13.75 32.5-18.4c14.45-4.35 33.56-7.459 59-9.5c1.31-0.11 2.65-0.21 4-0.32"/>
		<line class="_" x1="606.3" y1="463.5" x2="643.7" y2="401.5"/>
		<!--
		<line class="_" x1="637.5" y1="412" x2="637.5" y2="402"/>
		<circle class="_" cx="622.5" cy="457.9" r="2"/>
		-->
		<g>
			<rect x="245.5" y="491.5" class="st17" width="73" height="9"/>
			<rect x="240.5" y="492.5" class="st17" width="5" height="7"/>
			<rect x="225.5" y="493.5" class="st17" width="15" height="5"/>
			<!-- g>
				<line class="st14" x1="321" y1="497" x2="248" y2="497"/>
				<g>
					<line class="st7" x1="321" y1="497" x2="320" y2="497"/>
					<line class="st8" x1="318" y1="497" x2="311" y2="497"/>
					<line class="st12" x1="310" y1="497" x2="251" y2="497"/>
					<line class="st7" x1="249" y1="497" x2="248" y2="497"/>
				</g>
			</g -->
			<!-- g>
				<line class="st14" x1="319" y1="494" x2="248" y2="494"/>
				<g>
					<line class="st7" x1="319" y1="494" x2="318" y2="494"/>
					<line class="st8" x1="316" y1="494" x2="309" y2="494"/>
					<line class="st12" x1="308" y1="494" x2="250" y2="494"/>
					<line class="st7" x1="249" y1="494" x2="248" y2="494"/>
				</g>
			</g -->
			<!-- g>
				<line class="st14" x1="319" y1="500" x2="248" y2="500"/>
				<g>
					<line class="st7" x1="319" y1="500" x2="318" y2="500"/>
					<line class="st8" x1="316" y1="500" x2="309" y2="500"/>
					<line class="st12" x1="308" y1="500" x2="250" y2="500"/>
					<line class="st7" x1="249" y1="500" x2="248" y2="500"/>
				</g>
			</g -->
			<line class="st17" x1="248.5" y1="500" x2="248.5" y2="491"/>
			<rect x="318.5" y="490.5" class="st17" width="6" height="11"/>
		</g>
		<!--
		<g>
			<rect x="1467.5" y="358.5" class="st17" width="73" height="9"/>
			<rect x="1540.5" y="359.5" class="st17" width="5" height="7"/>
			<rect x="1545.5" y="360.5" class="st17" width="15" height="5"/>
			<line class="st12" x1="1464" y1="363" x2="1537" y2="363"/>
			<line class="st12" x1="1467" y1="366" x2="1538" y2="366"/>
			<line class="st12" x1="1467" y1="360" x2="1538" y2="360"/>
			<line class="_" x1="1537.5" y1="359" x2="1537.5" y2="368"/>
			<rect x="1461.5" y="357.5" class="st17" width="6" height="11"/>
		</g>
		-->
		<line class="_" x1="736" y1="494.8" x2="735.9" y2="550.5"/>
		<path class="_" d="M665.19 557.4c29.477-12.983 50.229-11.603 70.66-13.733"/>
		<line class="_" x1="720.5" y1="668" x2="720.5" y2="608"/>
		<path class="_" d="M667.51 616.29c20.05 9.6 36.2 13 53 13.7"/>
		<line class="st15" x1="2145" y1="551.5" x2="2194" y2="551.5"/>
		<path class="st21" d="M2288.5 495v-0.16v28.66c-27.32 13.75-41.05 19.79-89.5 28.25c-6.87 0.75-8.08-7.4-9.36-30.41"/>
		<path class="st21" d="M2232.603 510.39c27.725-2.188 42.651-2.808 55.9 0.9"/>
		<!--
		<path class="st13" d="M2184.862 504.589c0.107 10.4 1.9 14.1 4.8 16.7"/>
		<circle class="_" cx="2229.8" cy="541.3" r="1.9"/>
		-->
		<path class="_" d="M2220.72 547.64c2 2.9 5.3 4.8 9.1 4.78c5.59 0 10.23-4.15 10.98-9.54"/>
		<path class="st15" d="M2255.32 538.35c0.12 1 0.2 2 0.2 2.98c0 14.18-11.49 25.67-25.67 25.7 c-10.93 0-20.26-6.84-23.95-16.47"/>
		<!-- path class="_" d="M277.062 497.948c-8.071 4.66-17.167 5.524-18.306 3.6"/ -->
		<!-- path class="_" d="M289.614 485.939c1.138 1.973-4.48 7.35-12.552 12"/ -->
		<!--
		<g>
			<rect x="2155.5" y="359.5" class="_" width="16" height="10"/>
			<rect x="2155.5" y="362.5" class="_" width="9" height="4"/>
		</g>
		<g>
			<rect x="2155.5" y="256.5" class="_" width="16" height="10"/>
			<rect x="2155.5" y="259.5" class="_" width="9" height="4"/>
		</g>
		<g>
			<rect x="2155.5" y="113.5" class="_" width="16" height="10"/>
			<rect x="2155.5" y="116.5" class="_" width="9" height="4"/>
		</g>
		-->
		<polyline class="_" points="1937,371.5 2008.7,371.5 2009,371.5"/>
		<line class="_" x1="2085.3" y1="91.5" x2="2008.7" y2="371.5"/>
		<line class="_" x1="2249.5" y1="334" x2="2249.5" y2="222"/>
		<path class="st15" d="M2288.5 468c-170.5-26-289.167-26-338-6.5c-6.224 1.582-6.813 8.7 0 9.8 C2027.716 494.1 2138.4 489.5 2288.5 468"/>
		<path class="st15" d="M1114.85 642.56c320.67-9.75 591.02-33.97 824.91-73.22c159.98-23.91 301.56-56.52 424.74-98.56V471v-8 v-0.39c-11.6-4.25-23.42-8.32-35.54-12.23c-164.67-53.13-384.52-75.28-867.46-78.88c-0.25 0-0.5 0-0.5 0"/>
		<!--
		<path class="_" d="M2365.5 463.375c1.657 0 3 1.3 3 3"/>
		<path class="_" d="M2368.5 466.375c0 1.657-1.343 3-3 3"/>
		<path class="_" d="M777.445 523.734c-17.477 17.9 71 18.5 169 16.3"/>
		<circle class="_" cx="673.4" cy="550.5" r="1"/>
		<circle class="_" cx="547.4" cy="646.5" r="1"/>
		<circle class="_" cx="566.4" cy="645.5" r="1"/>
		<circle class="_" cx="584.4" cy="644.5" r="1"/>
		<circle class="_" cx="603.4" cy="643.5" r="1"/>
		<circle class="_" cx="541.4" cy="505.5" r="1"/>
		<circle class="_" cx="560.4" cy="504.5" r="1"/>
		<circle class="_" cx="578.4" cy="503.5" r="1"/>
		<circle class="_" cx="597.4" cy="502.5" r="1"/>
		<circle class="_" cx="541.4" cy="510.5" r="1"/>
		<circle class="_" cx="560.4" cy="509.5" r="1"/>
		<circle class="_" cx="578.4" cy="508.5" r="1"/>
		<circle class="_" cx="597.4" cy="507.5" r="1"/>
		<circle class="_" cx="547.4" cy="653.5" r="1"/>
		<circle class="_" cx="566.4" cy="652.5" r="1"/>
		<circle class="_" cx="584.4" cy="651.5" r="1"/>
		<circle class="_" cx="603.4" cy="650.5" r="1"/>
		<circle class="_" cx="673.4" cy="557.5" r="1"/>
		<g>
			<circle class="_" cx="732.4" cy="540.5" r="1"/>
			<circle class="_" cx="732.4" cy="547.5" r="1"/>
		</g>
		<g>
			<circle class="_" cx="673.4" cy="615.5" r="1"/>
			<circle class="_" cx="673.4" cy="622.5" r="1"/>
		</g>
		<g>
			<circle class="_" cx="716.4" cy="626.5" r="1"/>
			<circle class="_" cx="716.4" cy="633.5" r="1"/>
		</g>
		<path class="_" d="M719 298.5h-22.5c-1 0-1-4 0-4H733"/>
		<line class="_" x1="733" y1="300.5" x2="726" y2="300.5"/>
		<line class="st7" x1="729" y1="304" x2="725" y2="304"/>
		<line class="st7" x1="719" y1="304" x2="716" y2="304"/>
		<circle class="st17" cx="721.8" cy="301.2" r="4.2"/>
		<path class="_" d="M718 317.5h-22.5c-1 0-1-4 0-4H732"/>
		<line class="_" x1="731" y1="319.5" x2="725" y2="319.5"/>
		<line class="st7" x1="728" y1="323" x2="724" y2="323"/>
		<line class="st7" x1="718" y1="323" x2="715" y2="323"/>
		<circle class="st17" cx="720.8" cy="320.2" r="4.2"/>
		<line class="st7" x1="2258" y1="234" x2="2223" y2="234"/>
		<path class="_" d="M2221.5 237c-23.333-0.75-23.333-6.25 0-7C2223.832 229.9 2223.8 237.1 2221.5 237z"/>
		<line class="st7" x1="2173" y1="389" x2="2133" y2="389"/>
		<path class="_" d="M2131.5 393c-47.5-2-47.5-6 0-8C2134.164 384.9 2134.2 393.1 2131.5 393z"/>
		<path class="st13" d="M456.36 608.635l4.26-0.135h0.34l5.38-0.266l11.98-0.492l5.92-0.216l1.68-0.026c0.03 0 0.1 0 0.1 0 l0.59-0.03l6.98-0.298"/>
		<polyline class="st13" points="489.1,601.2 484,601.5 480.3,601.6 478.1,601.7 466.1,602.1 456.1,602.5"/>
		-->
		<polyline class="st13" points="493.4,604.1 484.1,604.5 480.4,604.6 478.2,604.7 466.2,605.1 460.5,605.4 456.2,605.5"/>
		<path class="st13" d="M486.268 616.3"/>
		<path class="st13" d="M493.95 616.1"/>
		<polyline class="st13" points="486.3,616.3 482.5,616.5 478.7,616.7 466.7,617.1 463.4,617.3 456.7,617.5"/>
		<path class="st21" d="M457.1 627.45c-2.38-0.21-4.73-0.54-7.04-1.01c-18.97-3.721-35.13-15.45-41.25-29.12 c5.02-14.101 20.22-27.07 38.83-32.271c2.27-0.64 4.58-1.16 6.94-1.55l2.413 63.95l0.104 1.4"/>
		<path class="st21" d="M470.88 587.62c-1.96 0-3.8-0.25-5.38-0.69"/>
		<path class="st21" d="M477.49 586.53c-1.82 0.689-4.12 1.09-6.61 1.1"/>
		<path class="st21" d="M481.061 582.36c0 1.64-1.061 3.239-3.57 4.2"/>
		<path class="st13" d="M481.96 577.15c2.44 1.4 3.9 3.4 3.9 5.5"/>
		<path class="st13" d="M459.67 577.22c-2.36 1.45-3.79 3.34-3.79 5.4"/>
		<path class="st13" d="M470.875 590.779c-8.284 0-15-3.645-15-8.139"/>
		<path class="st13" d="M470.88 590.78c2.43 0 4.72-0.311 6.75-0.87c4.89-1.34 8.25-4.101 8.25-7.271"/>
		<path class="st13" d="M455.481 586.36c0 3.5 4.5 6.5 10.3 7.7"/>
		<path class="st13" d="M477.77 593.59c4.82-1.35 8.11-4.08 8.11-7.229"/>
		<path class="st21" d="M463.375 617.143c-0.563 77.7 2.5 133.1 15 214.357c0.268 1.7 5 1.7 5.3 0 c9.326-62.351 11.602-106.419 6.557-158.34c-2.697-18.02-6.063-36.64-7.724-56.87"/>
		<!--
		<line class="st13" x1="480.3" y1="601.6" x2="480.5" y2="604.6"/>
		<line class="st13" x1="460.5" y1="605.4" x2="460.6" y2="608.4"/>
		<line class="st13" x1="484" y1="601.4" x2="484.2" y2="607.4"/>
		-->
		<path class="st13" d="M486.27 616.3c3.41-0.13 3.33-7.93 0.32-8.83c-0.21-0.069-0.43-0.1-0.67-0.09"/>
		<line class="st13" x1="460.6" y1="608.4" x2="461" y2="608.4"/>
		<!--
		<polyline class="st13" points="460.5,608 460.5,608.4 460.7,612.8"/>
		<g>
			<rect x="268.5" y="491.5" class="st17" width="73" height="9"/>
			<rect x="263.5" y="492.5" class="st17" width="5" height="7"/>
			<rect x="248.5" y="493.5" class="st17" width="15" height="5"/>
			<g>
				<line class="st14" x1="344" y1="497" x2="271" y2="497"/>
				<g>
					<line class="st7" x1="344" y1="497" x2="343" y2="497"/>
					<line class="st8" x1="341" y1="497" x2="334" y2="497"/>
					<line class="st12" x1="333" y1="497" x2="274" y2="497"/>
					<line class="st7" x1="272" y1="497" x2="271" y2="497"/>
				</g>
			</g>
			<g>
				<line class="st14" x1="342" y1="494" x2="271" y2="494"/>
				<g>
					<line class="st7" x1="342" y1="494" x2="341" y2="494"/>
					<line class="st8" x1="339" y1="494" x2="332" y2="494"/>
					<line class="st12" x1="331" y1="494" x2="273" y2="494"/>
					<line class="st7" x1="272" y1="494" x2="271" y2="494"/>
				</g>
			</g>
			<g>
				<line class="st14" x1="342" y1="500" x2="271" y2="500"/>
				<g>
					<line class="st7" x1="342" y1="500" x2="341" y2="500"/>
					<line class="st8" x1="339" y1="500" x2="332" y2="500"/>
					<line class="st12" x1="331" y1="500" x2="273" y2="500"/>
					<line class="st7" x1="272" y1="500" x2="271" y2="500"/>
				</g>
			</g>
			<line class="st17" x1="271.5" y1="500" x2="271.5" y2="491"/>
			<rect x="341.5" y="490.5" class="st17" width="6" height="11"/>
		</g>
		<line class="st13" x1="461.1" y1="612.9" x2="456.5" y2="613.1"/>
		-->
		<path class="st21" d="M465.5 586.93c-3.21-0.88-5.37-2.529-5.37-4.43c-1.646-18.291-2.61-35.095-2.748-50.127 c-0.215-23.474 1.585-42.625 5.948-56.373c0.521-1.643 4.264-1.466 5.2 0c10.461 16.9 15.4 35.9 16.3 57.7 c0.21 14.952-0.264 30.569-3.932 50"/>
		<path class="st13" d="M463.312 532.334c-0.149 16.6 3 26.3 9.3 41.3"/>
		<line class="st13" x1="469" y1="564.5" x2="469" y2="564.5"/>
		<path class="st13" d="M483.21 568.13c4.12 2.1 7.5 5.2 9.1 9.6"/>
		<path class="st13" d="M458.68 564.24c-1.64 0.17-3.03 0.439-4.04 0.8"/>
		<line class="st13" x1="485.9" y1="586.7" x2="485.9" y2="582.6"/>
		<line class="st13" x1="485.9" y1="585.5" x2="492.9" y2="590.5"/>
		<!--
		<path class="st13" d="M280.237 578.287l0.763-1.953c51.143 20 93 28.4 138.9 35.5"/>
		<line class="st20" x1="1300" y1="496" x2="1307" y2="496"/>
		<line class="st13" x1="1300" y1="495.5" x2="1312" y2="495.5"/>
		<path class="_" d="M551.065 585.865c-0.123-2.342 8.006-3.674 13.981-0.733"/>
		<path class="_" d="M553.065 632.443c-0.123 2.3 8 3.7 14 0.7"/>
		<path class="_" d="M585.065 622.443c-0.123 2.3 8 3.7 14 0.7"/>
		<path class="_" d="M587.065 663.443c-0.123 2.3 8 3.7 14 0.7"/>
		<path class="_" d="M587.065 679.443c-0.123 2.3 8 3.7 14 0.7"/>
		<path class="_" d="M554.065 658.443c-0.123 2.3 8 3.7 14 0.7"/>
		<path class="_" d="M555.065 682.443c-0.123 2.3 8 3.7 14 0.7"/>
		<path class="_" d="M549.065 552.865c-0.123-2.342 8.006-3.674 13.981-0.733"/>
		<path class="_" d="M582.065 545.865c-0.123-2.342 8.006-3.674 13.981-0.733"/>
		<path class="_" d="M583.065 591.865c-0.123-2.342 8.006-3.674 13.981-0.733"/>
		<path class="_" d="M581.065 518.865c-0.123-2.342 8.006-3.674 13.981-0.733"/>
		<path class="_" d="M548.065 513.865c-0.123-2.342 8.006-3.674 13.981-0.733"/>
		-->
		<path class="_" d="M554.083 511.444l-4.59-14.498c-1.149-3.63 13.047-3.444 11.4 0L554.083 511.4"/>
		<path class="_" d="M586.083 508.444l-4.59-14.498c0.881-2.404 10.965-2.227 11.4 0L586.083 508.4"/>
		<polyline class="_" points="760.5,526 770.7,525.5 784,525.5"/>
		<!--
		<line class="_" x1="760.5" y1="532" x2="766" y2="532.5"/>
		<line class="_" x1="760.5" y1="526" x2="760.5" y2="532"/>
		-->
		<path class="_" d="M760.5 526c-4.833 0.5-4.833 5.5 0 6"/>
		<!--
		<path class="_" d="M767.063 525.5c-1.395 2.776-0.761 4.3 1.2 6.1"/>
		<line class="_" x1="416.5" y1="479" x2="416.5" y2="445"/>
		<line class="_" x1="463.5" y1="510" x2="463.5" y2="438"/>
		<path class="_" d="M416.5 462.875c17.772-2.831 29.3-4.673 47-5.25"/>
		<path class="_" d="M416.5 449.875c17.772-2.831 29.3-4.673 47-5.25"/>
		-->
		<ellipse class="st22" cx="356.9" cy="505.4" rx="5.1" ry="4.8"/>
		<ellipse class="_" cx="356.9" cy="505.4" rx="7" ry="6.5"/>
		<path class="_" d="M2023.313 448.659c-77.533 10.688-80.161 24.521-6.939 34.9"/>
		<path class="_" d="M2141.5 451c-64.833 4.999-64.833 28 0 33"/>
		<line class="_" x1="2285" y1="467.5" x2="1946" y2="467.5"/>
		<!--
		<polyline class="_" points="2228.5,460 2228.5,458.5 2228.5,457 2228,456.5 2202,456.5"/>
		<polyline class="_" points="2249.5,462 2249.5,459 2249,458.5 2228.5,458.5 2219,458.5"/>
		-->
		<polyline class="_" points="759.6,791.5 760.1,791.1 849.3,727.8 852.1,725.8"/>
		<line class="_" x1="897.1" y1="693.9" x2="873.1" y2="710.9"/>
		<line class="_" x1="754.2" y1="782.8" x2="760.1" y2="791.1"/>
		<line class="_" x1="846.2" y1="717.5" x2="852.1" y2="725.8"/>
		<path class="_" d="M747.5 783.73c1.54 0.3 2.9 1.3 3.6 2.55c0.54 0.9 0.8 1.9 0.8 2.97c0 0.8-0.17 1.56-0.47 2.2 c-0.87 1.99-2.85 3.38-5.15 3.38c-0.66 0-1.29-0.11-1.88-0.32c-0.05-0.02-0.1-0.04-0.15-0.06"/>
		<polyline class="_" points="752,791.5 759.6,791.5 760.1,791.1"/>
		<polyline class="_" points="867.1,702.6 867.2,702.5 867.2,702.5 876.7,695.8"/>
		<polyline class="_" points="846.2,717.5 843.4,719.5 754.1,782.8 751.1,786.3"/>
		<line class="_" x1="873.1" y1="710.9" x2="867.2" y2="702.5"/>
		<line class="_" x1="859.7" y1="729" x2="845.1" y2="708.5"/>
		<line class="_" x1="845.1" y1="708.5" x2="867.2" y2="702.5"/>
		<line class="_" x1="873.1" y1="710.9" x2="859.7" y2="729"/>
		<line class="_" x1="845.1" y1="708.5" x2="843.4" y2="719.5"/>
		<line class="_" x1="849.3" y1="727.8" x2="859.7" y2="729"/>
		<!--
		<path class="_" d="M839.017 704.094c1.036 6.8 1.9 10 5 11.2"/>
		<path class="_" d="M853 698c2.109 2.8 2.4 4.8 1.6 8"/>
		<polyline class="_" points="828.8,729.7 839.5,707.9 839.5,708"/>
		<line class="_" x1="837.7" y1="704.9" x2="823.7" y2="733.5"/>
		<path class="_" d="M1446.93 375.76c-2.22-8.85-5.27-15.14-9.78-19.54c-0.72-0.71-1.47-1.37-2.27-1.97 c-4.53-3.48-10.33-5.5-17.88-6.58"/>
		<path class="_" d="M1461 371.5h-12c-3.871-14.472-12.049-21.69-26.254-27.812"/>
		<path class="st14" d="M263 503h63h23v-17h-24h-34c0 0-5.866 7.414-13.938 12.073c-8.071 4.66-17.167 5.712-18.306 3.7"/>
		<path class="_" d="M290.5 501.5c37.73-9.909 67.023-15.85 126-22.75"/>
		<line class="_" x1="290.5" y1="502" x2="290.5" y2="485"/>
		-->
	</g>
</g>
</switch>
</svg>
