<svg xmlns:x="http://ns.adobe.com/Extensibility/1.0/"
     xmlns:i="http://ns.adobe.com/AdobeIllustrator/10.0/"
     xmlns:graph="http://ns.adobe.com/Graphs/1.0/"
     xmlns="http://www.w3.org/2000/svg"
     xmlns:xlink="http://www.w3.org/1999/xlink"
    version="1.1" viewBox="0 0 2600 3412"
     xml:space="preserve">
<style type="text/css">
	.st4 {fill:none;stroke:#fff;stroke-miterlimit:10;}
	.st12{fill:none;stroke:#fff;stroke-width:2;stroke-miterlimit:10;stroke-dasharray:2,2,2,2,2,2;}
	.st13{fill:none;stroke:#fff;stroke-linejoin:round;stroke-miterlimit:10;}
	.st15{fill:none;stroke:#fff;stroke-width:3;stroke-miterlimit:10;}
	.st17{fill:none;stroke:#fff;stroke-miterlimit:10;}
	.st18{fill:#fff;}
	.st21{fill:none;stroke:#fff;stroke-width:3;stroke-linejoin:round;stroke-miterlimit:10;}
</style>
<switch>
	<g id="top">
		<g>
			<path class="st15" d="M1483.834 1782.021c-2.269-10.915-2.977-18.467 2.829-31.82l555.835-909.305"/>
			<path class="st15" d="M1353.02 1912.835c-10.915-2.27-18.466-2.977-31.82 2.828l-909.304 555.8"/>
			<path class="st15" d="M2194.848 2618.19c-124.595-189.299-240.704-348.061-437.363-562.52l-0.354-0.354l-790.865-790.865"/>
			<path class="st15" d="M2189.191 2623.849c-189.299-124.596-348.061-240.705-562.52-437.363l-0.354-0.354l-790.865-790.865"/>
			<polyline class="st15" points="2067.9,2431.2 2105.8,2469 2120.6,2483.9 2151.4,2514.6"/>
			<polyline class="st15" points="2002.2,2496.9 2040,2534.8 2054.9,2549.6 2085.6,2580.4"/>
			<line class="st15" x1="2268.4" y1="2131" x2="2268.4" y2="2131"/>
			<line class="st15" x1="1702" y1="2697.4" x2="1702" y2="2697.4"/>
			<polyline class="st15" points="2279.4,2142 2318.6,2181.2 2318.6,2181.2 2318.3,2181.6 2067.9,2431.9"/>
			<polyline class="st15" points="1713,2708.4 1752.2,2747.6 1752.2,2747.6 1752.6,2747.3 2002.9,2496.9"/>
			<line class="st15" x1="2279.4" y1="2142.7" x2="2294.9" y2="2127.1"/>
			<line class="st15" x1="1713.7" y1="2708.4" x2="1698.1" y2="2723.9"/>
			<polyline class="st4" points="1348.8,1130.8 1349.5,1131.5 1669.1,1451.1"/>
			<polyline class="st4" points="701.8,1777.8 702.5,1778.5 1022.1,2098.1"/>
			<line class="st15" x1="2235.5" y1="2414.9" x2="2219.3" y2="2398.7"/>
			<line class="st15" x1="1985.9" y1="2664.5" x2="1969.7" y2="2648.3"/>
			<line class="st15" x1="2127.3" y1="2491.3" x2="2219.3" y2="2399.4"/>
			<line class="st15" x1="2062.3" y1="2556.3" x2="1970.4" y2="2648.3"/>
			<path class="st15" d="M2151.697 2514.937c-10.457 12.677-9.602 20.659-2.887 34.1"/>
			<path class="st15" d="M2085.936 2580.696c12.677-10.456 20.66-9.602 34.058-2.887"/>
			<line class="st4" x1="2021.3" y1="789.3" x2="1903.9" y2="671.9"/>
			<line class="st4" x1="360.3" y1="2450.3" x2="242.9" y2="2332.9"/>
			<line class="st4" x1="2051.3" y1="819.3" x2="2051.3" y2="819.3"/>
			<line class="st4" x1="390.3" y1="2480.3" x2="390.3" y2="2480.3"/>
			<polyline class="st15" points="1795.7,1243.9 1742.4,1190.6 1742,1190.2"/>
			<polyline class="st15" points="814.9,2224.7 761.6,2171.4 761.2,2171"/>
			<polyline class="st4" points="1797.1,1241.1 1779.8,1223.8 1744,1188 1743.4,1187.4"/>
			<polyline class="st4" points="812.1,2226.1 794.8,2208.8 759,2173 758.4,2172.4"/>
			<line class="st15" x1="1882.7" y1="1101.8" x2="1867.8" y2="1087"/>
			<line class="st15" x1="672.8" y1="2311.7" x2="658" y2="2296.8"/>
			<polyline class="st15" points="2063,770.2 2046.6,753.8 2046,753.2"/>
			<polyline class="st15" points="341.2,2492 324.8,2475.6 324.2,2475"/>
			<line class="st4" x1="1914" y1="682" x2="1380.8" y2="1162.8"/>
			<line class="st4" x1="253" y1="2343" x2="733.8" y2="1809.8"/>
			<path class="st15" d="M835.771 1395.586c-124.454-128.642-171.371-246.769-154.251-275.872c1.1-1.868 2.466-3.613 4.025-5.168 c1.554-1.559 3.3-2.926 5.168-4.025c29.104-17.119 147.2 29.8 275.9 154.3"/>
			<polyline class="st4" points="1940.7,2266.4 1940.3,2266.8 1940.3,2266.8 1895.4,2311.7"/>
			<polyline class="st4" points="1882.7,2324.4 1837.8,2369.3 1837.8,2369.3 1837.4,2369.7"/>
			<path class="st15" d="M2151.697 2514.937c31.644-35.363 59.695-68.618 84.209-99.639 c109.871-139.018 148.591-233.076 119.691-270.433c-1.23-1.584-2.573-3.069-4.037-4.448 c-15.02-14.128-42.745-17.473-82.859-9.107c-67.621 14.106-170.482 61.49-307.216 146.746c-0.389 0.105-0.771 0.19-1.16 0.3 c-4.822 0.834-10.104-1.676-19.686-11.229"/>
			<path class="st15" d="M2085.936 2580.696c-35.362 31.645-68.618 59.695-99.638 84.2 c-139.017 109.87-233.077 148.591-270.433 119.691c-1.584-1.23-3.069-2.573-4.449-4.036 c-14.127-15.021-17.472-42.746-9.107-82.859c14.107-67.621 61.49-170.482 146.747-307.217c0.105-0.389 0.19-0.771 0.254-1.16 c0.834-4.822-1.676-10.104-11.229-19.686"/>
			<polyline class="st4" points="1959.8,2277.7 1960.3,2278.3 2086.3,2404.3"/>
			<polyline class="st4" points="1848.7,2388.8 1849.3,2389.3 1975.3,2515.3"/>
			<line class="st4" x1="2086.3" y1="2405" x2="2314" y2="2177.3"/>
			<line class="st4" x1="1976" y1="2515.3" x2="1748.3" y2="2743"/>
			<path class="st4" d="M2279.684 2142.291c-104.753 46.673-188.249 91.096-298.046 157.3"/>
			<path class="st4" d="M1713.291 2708.684c46.673-104.753 91.096-188.249 157.331-298.046"/>
			<path class="st4" d="M1087.367 1145.136c28.285-30.857 105.707-108.166 132.399-132.06"/>
			<path class="st4" d="M716.135 1516.366c-30.857 28.285-108.165 105.707-132.059 132.4"/>
			<path class="st4" d="M1090.902 1148.671c28.285-30.857 105.707-108.166 132.399-132.059"/>
			<path class="st4" d="M719.671 1519.902c-30.857 28.285-108.166 105.706-132.059 132.4"/>
			<path class="st4" d="M1141.107 1198.876c28.285-30.857 105.707-108.166 132.399-132.06"/>
			<path class="st4" d="M769.875 1570.106c-30.857 28.285-108.165 105.707-132.059 132.4"/>
			<path class="st4" d="M1144.643 1202.411c28.285-30.857 105.706-108.166 132.399-132.059"/>
			<path class="st4" d="M773.411 1573.643c-30.858 28.284-108.166 105.706-132.059 132.4"/>
			<path class="st15" d="M1176.985 1003.53c-1.415-1.414-100.408 97.58-98.995 99"/>
			<path class="st15" d="M574.529 1605.985c-1.413-1.416 97.58-100.408 98.995-98.996"/>
			<path class="st15" d="M1177.304 1003.849c14.551-6.45 23.975-5.691 42.4 9.2"/>
			<path class="st15" d="M574.849 1606.304c-6.45 14.552-5.691 24 9.2 42.4"/>
			<path class="st15" d="M1078.309 1102.845c-8.527 14.613-4.137 25.9 9.2 42.4"/>
			<path class="st15" d="M673.844 1507.31c14.613-8.527 25.857-4.137 42.4 9.2"/>
			<line class="st4" x1="1449.2" y1="1371.9" x2="1519.2" y2="1301.9"/>
			<line class="st4" x1="942.9" y1="1878.2" x2="872.9" y2="1948.2"/>
			<line class="st4" x1="1261.1" y1="1560" x2="1445.7" y2="1375.5"/>
			<line class="st4" x1="1131" y1="1690.1" x2="946.5" y2="1874.7"/>
			<polyline class="st4" points="1207.4,1136.5 1208.1,1137.1 1227.9,1157"/>
			<polyline class="st4" points="707.5,1636.4 708.1,1637.1 728,1656.9"/>
			<polyline class="st4" points="1209.5,1134.3 1210.2,1135 1230,1154.9"/>
			<polyline class="st4" points="705.3,1638.5 706,1639.2 725.9,1659"/>
			<line class="st4" x1="1233.6" y1="1152.7" x2="1213" y2="1132.2"/>
			<line class="st4" x1="723.7" y1="1662.6" x2="703.2" y2="1642"/>
			<polyline class="st4" points="1367.2,1149.9 1236.6,1280.5 1221.5,1295.6"/>
			<polyline class="st4" points="720.9,1796.2 851.5,1665.6 866.6,1650.5"/>
			<path class="st15" d="M1349.485 1390.282c14.375 10 26.7 18.5 41.7 27.67c10.734 6.5 22.9 13.4 38.2 21.4"/>
			<path class="st15" d="M961.283 1778.484c10.005 14.4 18.5 26.7 27.7 41.712c6.532 10.7 13.4 22.9 21.4 38.2"/>
			<path class="st4" d="M1353.137 1164.599c47.608 41.1 93.2 90.9 142.4 161.7"/>
			<path class="st4" d="M735.598 1782.138c41.116 47.6 90.9 93.2 161.7 142.4"/>
			<path class="st4" d="M1398.628 1423.163c-2.503-1.739-4.986-3.472-7.432-5.211"/>
			<path class="st4" d="M994.163 1827.628c-1.739-2.503-3.472-4.985-5.211-7.432"/>
			<path class="st4" d="M1236.934 1280.802c31.29 36.2 67.6 71.3 114.4 107.6"/>
			<path class="st4" d="M851.801 1665.935c36.226 31.3 71.3 67.6 107.6 114.4"/>
			<g>
				<circle class="st4" cx="1542.1" cy="1467.6" r="10.5"/>
				<circle class="st4" cx="1547" cy="1462.3" r="0.5"/>
				<circle class="st4" cx="1540" cy="1460.6" r="0.5"/>
				<circle class="st4" cx="1535" cy="1465.9" r="0.5"/>
				<circle class="st4" cx="1537.1" cy="1472.9" r="0.5"/>
				<circle class="st4" cx="1544.1" cy="1474.5" r="0.5"/>
				<circle class="st4" cx="1549.1" cy="1469.3" r="0.5"/>
			</g>
			<g>
				<circle class="st4" cx="1038.6" cy="1971.1" r="10.5"/>
				<circle class="st4" cx="1033.3" cy="1976" r="0.5"/>
				<circle class="st4" cx="1031.6" cy="1969" r="0.5"/>
				<circle class="st4" cx="1036.9" cy="1964" r="0.5"/>
				<circle class="st4" cx="1043.9" cy="1966.1" r="0.5"/>
				<circle class="st4" cx="1045.5" cy="1973.1" r="0.5"/>
				<circle class="st4" cx="1040.3" cy="1978.1" r="0.5"/>
			</g>
			<g>
				
					<ellipse transform="matrix(0.7071 0.7071 -0.7071 0.7071 1182.356 -702.3647)" class="st4" cx="1439" cy="1076" rx="6.5" ry="10.5"/>
				
					<ellipse transform="matrix(0.7067 0.7075 -0.7075 0.7067 1181.1318 -707.6005)" class="st4" cx="1444" cy="1070.8" rx="0.3" ry="0.5"/>
				<path class="st4" d="M1439.064 1070.622c0.008 0.202-0.172 0.455-0.402 0.563c-0.23 0.109-0.421 0.033-0.429-0.17 s0.174-0.453 0.403-0.563C1438.866 1070.3 1439.1 1070.4 1439.1 1070.622z"/>
				<path class="st4" d="M1433.81 1075.62c0.205 0 0.3 0.2 0.2 0.428c-0.109 0.231-0.36 0.41-0.563 0.4 c-0.202-0.006-0.277-0.2-0.168-0.429C1433.357 1075.8 1433.6 1075.6 1433.8 1075.62z"/>
				
					<ellipse transform="matrix(-0.7067 -0.7075 0.7075 -0.7067 1682.3822 2859.9451)" class="st4" cx="1434" cy="1081.3" rx="0.3" ry="0.5"/>
				<path class="st4" d="M1438.951 1081.472c-0.005-0.202 0.175-0.453 0.403-0.563c0.23-0.108 0.422-0.033 0.4 0.2 c0.008 0.201-0.174 0.455-0.404 0.562C1439.15 1081.8 1439 1081.7 1439 1081.472z"/>
				<path class="st4" d="M1444.205 1076.476c-0.203-0.009-0.278-0.201-0.17-0.43c0.108-0.23 0.36-0.41 0.563-0.402 c0.203 0 0.3 0.2 0.2 0.428C1444.659 1076.3 1444.4 1076.5 1444.2 1076.476z"/>
			</g>
			<g>
				
					<ellipse transform="matrix(0.7071 0.7071 -0.7071 0.7071 1510.3964 89.5951)" class="st4" cx="647" cy="1868" rx="6.5" ry="10.5"/>
				
					<ellipse transform="matrix(0.7071 0.7071 -0.7071 0.7071 1512.4286 94.7594)" class="st4" cx="641.8" cy="1873" rx="0.3" ry="0.5"/>
				<path class="st4" d="M641.622 1868.064c0.202 0 0.454-0.173 0.563-0.403c0.108-0.229 0.033-0.42-0.17-0.428 c-0.202-0.008-0.453 0.174-0.563 0.403S641.419 1868.1 641.6 1868.064z"/>
				<path class="st4" d="M646.619 1862.81c0.008 0.2 0.2 0.3 0.4 0.172c0.231-0.109 0.41-0.361 0.403-0.564 c-0.006-0.201-0.199-0.276-0.428-0.168C646.794 1862.4 646.6 1862.6 646.6 1862.81z"/>
				
					<ellipse transform="matrix(-0.7079 -0.7063 0.7063 -0.7079 -201.848 3642.4702)" class="st4" cx="652.3" cy="1863" rx="0.3" ry="0.5"/>
				<path class="st4" d="M652.472 1867.95c-0.202-0.005-0.453 0.176-0.563 0.403c-0.108 0.23-0.033 0.4 0.2 0.4 c0.201 0 0.455-0.174 0.562-0.404C652.751 1868.2 652.7 1868 652.5 1867.95z"/>
				<path class="st4" d="M647.476 1873.205c-0.009-0.203-0.201-0.278-0.43-0.17c-0.23 0.108-0.41 0.36-0.403 0.6 c0.008 0.2 0.2 0.3 0.4 0.168C647.3 1873.7 647.5 1873.4 647.5 1873.205z"/>
			</g>
			<g>
				
					<ellipse transform="matrix(0.7071 0.7071 -0.7071 0.7071 1115.2211 -908.1838)" class="st4" cx="1654" cy="892.2" rx="6.5" ry="10.5"/>
				
					<ellipse transform="matrix(0.7071 0.7071 -0.7071 0.7071 1113.1021 -913.301)" class="st4" cx="1659" cy="887" rx="0.3" ry="0.5"/>
				<path class="st4" d="M1654.025 886.774c0.007 0.203-0.173 0.454-0.403 0.563s-0.421 0.033-0.429-0.17 c-0.008-0.203 0.174-0.453 0.403-0.563C1653.826 886.5 1654 886.6 1654 886.774z"/>
				<path class="st4" d="M1648.771 891.772c0.204 0 0.3 0.2 0.2 0.428c-0.109 0.23-0.361 0.41-0.564 0.4 c-0.202-0.006-0.277-0.198-0.168-0.427C1648.317 891.9 1648.6 891.8 1648.8 891.772z"/>
				
					<ellipse transform="matrix(-0.7067 -0.7075 0.7075 -0.7067 2179.3311 2698.2554)" class="st4" cx="1648.9" cy="897.4" rx="0.3" ry="0.5"/>
				<path class="st4" d="M1653.911 897.625c-0.005-0.204 0.175-0.454 0.403-0.563c0.23-0.109 0.422-0.033 0.4 0.2 c0.007 0.201-0.174 0.455-0.404 0.563C1654.111 897.9 1653.9 897.8 1653.9 897.625z"/>
				<path class="st4" d="M1659.166 892.628c-0.203-0.009-0.277-0.201-0.17-0.43c0.108-0.23 0.36-0.41 0.563-0.402 c0.203 0 0.3 0.2 0.2 0.428C1659.62 892.5 1659.4 892.6 1659.2 892.628z"/>
			</g>
			<g>
				
					<ellipse transform="matrix(0.7071 0.7071 -0.7071 0.7071 1608.453 282.4945)" class="st4" cx="463.2" cy="2083" rx="6.5" ry="10.5"/>
				
					<ellipse transform="matrix(0.7071 0.7071 -0.7071 0.7071 1610.5811 287.7195)" class="st4" cx="458" cy="2088" rx="0.3" ry="0.5"/>
				<path class="st4" d="M457.774 2083.025c0.202 0 0.454-0.173 0.563-0.403c0.108-0.229 0.033-0.421-0.171-0.428 c-0.202-0.008-0.453 0.174-0.562 0.402C457.495 2082.8 457.6 2083 457.8 2083.025z"/>
				<path class="st4" d="M462.771 2077.771c0.007 0.2 0.2 0.3 0.4 0.171c0.229-0.108 0.409-0.36 0.402-0.563 c-0.006-0.202-0.199-0.277-0.428-0.168C462.946 2077.3 462.8 2077.6 462.8 2077.771z"/>
				
					<ellipse transform="matrix(-0.7071 -0.7071 0.7071 -0.7071 -669.6819 3878.4749)" class="st4" cx="468.4" cy="2077.9" rx="0.3" ry="0.5"/>
				<path class="st4" d="M468.625 2082.911c-0.203-0.006-0.454 0.175-0.563 0.403c-0.109 0.229-0.032 0.4 0.2 0.4 c0.201 0 0.455-0.174 0.562-0.404C468.902 2083.1 468.8 2082.9 468.6 2082.911z"/>
				<path class="st4" d="M463.627 2088.165c-0.008-0.203-0.2-0.277-0.43-0.17c-0.229 0.109-0.409 0.359-0.402 0.6 s0.2 0.3 0.4 0.169C463.452 2088.6 463.6 2088.4 463.6 2088.165z"/>
			</g>
			<g>
				
					<ellipse transform="matrix(0.7071 0.7071 -0.7071 0.7071 1297.7321 -403.0269)" class="st4" cx="1135.3" cy="1364.9" rx="9" ry="10.5"/>
				
					<ellipse transform="matrix(0.7074 0.7068 -0.7068 0.7074 1294.7357 -408.1665)" class="st4" cx="1140.3" cy="1359.7" rx="0.4" ry="0.5"/>
				<path class="st4" d="M1134.374 1358.487c0.049 0.242-0.119 0.508-0.372 0.593c-0.253 0.086-0.496-0.042-0.543-0.284 c-0.048-0.243 0.119-0.508 0.373-0.594C1134.083 1358.1 1134.3 1358.2 1134.4 1358.487z"/>
				<path class="st4" d="M1129.072 1363.437c0.244 0 0.4 0.3 0.3 0.543c-0.085 0.254-0.35 0.42-0.594 0.4 c-0.243-0.047-0.37-0.293-0.284-0.544C1128.563 1363.6 1128.8 1363.4 1129.1 1363.437z"/>
				
					<ellipse transform="matrix(-0.7071 -0.7071 0.7071 -0.7071 960.7518 3138.353)" class="st4" cx="1130.3" cy="1370.2" rx="0.4" ry="0.5"/>
				<path class="st4" d="M1136.326 1371.403c-0.047-0.244 0.119-0.51 0.372-0.596c0.252-0.085 0.5 0 0.5 0.3 c0.048 0.241-0.12 0.508-0.373 0.593C1136.616 1371.8 1136.4 1371.6 1136.3 1371.403z"/>
				<path class="st4" d="M1141.628 1366.454c-0.244-0.049-0.37-0.292-0.285-0.544c0.085-0.254 0.35-0.419 0.594-0.372 c0.243 0 0.4 0.3 0.3 0.543C1142.136 1366.3 1141.9 1366.5 1141.6 1366.454z"/>
			</g>
			<g>
				
					<ellipse transform="matrix(0.7071 0.7071 -0.7071 0.7071 1380.3618 -203.6084)" class="st4" cx="935.9" cy="1564.3" rx="9" ry="10.5"/>
				
					<ellipse transform="matrix(0.7071 0.7071 -0.7071 0.7071 1382.2908 -198.4468)" class="st4" cx="930.7" cy="1569.3" rx="0.4" ry="0.5"/>
				<path class="st4" d="M929.486 1563.374c0.243 0 0.508-0.119 0.594-0.372s-0.041-0.496-0.284-0.543 c-0.243-0.048-0.509 0.118-0.594 0.372C929.116 1563.1 929.2 1563.3 929.5 1563.374z"/>
				<path class="st4" d="M934.437 1558.071c0.046 0.2 0.3 0.4 0.5 0.285c0.255-0.086 0.421-0.351 0.373-0.594 c-0.047-0.244-0.292-0.37-0.543-0.284C934.556 1557.6 934.4 1557.8 934.4 1558.071z"/>
				
					<ellipse transform="matrix(-0.7071 -0.7071 0.7071 -0.7071 504.0969 3327.5049)" class="st4" cx="941.2" cy="1559.4" rx="0.4" ry="0.5"/>
				<path class="st4" d="M942.402 1565.325c-0.244-0.047-0.509 0.119-0.595 0.373c-0.085 0.3 0 0.5 0.3 0.5 c0.241 0 0.508-0.12 0.592-0.373C942.772 1565.6 942.6 1565.4 942.4 1565.325z"/>
				<path class="st4" d="M937.454 1570.628c-0.05-0.244-0.292-0.369-0.544-0.284c-0.254 0.085-0.42 0.351-0.372 0.6 c0.046 0.2 0.3 0.4 0.5 0.282C937.332 1571.1 937.5 1570.9 937.5 1570.628z"/>
			</g>
			<circle class="st4" cx="1291" cy="1382" r="10.5"/>
			<circle class="st4" cx="953" cy="1720" r="10.5"/>
			<circle class="st4" cx="1296" cy="1376.8" r="0.5"/>
			<circle class="st4" cx="947.8" cy="1725" r="0.5"/>
			<circle class="st4" cx="1285.8" cy="1377.1" r="0.5"/>
			<circle class="st4" cx="948.1" cy="1714.8" r="0.5"/>
			<circle class="st4" cx="1286.1" cy="1387.3" r="0.5"/>
			<circle class="st4" cx="958.3" cy="1715.1" r="0.5"/>
			<circle class="st4" cx="1296.3" cy="1387" r="0.5"/>
			<circle class="st4" cx="958" cy="1725.3" r="0.5"/>
			<circle class="st4" cx="1166.6" cy="1396.2" r="10.5"/>
			<circle class="st4" cx="967.2" cy="1595.6" r="10.5"/>
			<path class="st15" d="M1367.71 1149.707c58.117 58.4 97.9 108.3 133.1 170.606l-2.829 2.828l0.236-0.236l98.329 197.8 l-167.349-81.553"/>
			<path class="st15" d="M720.707 1796.71c58.43 58.1 108.3 97.9 170.6 133.13l2.828-2.829l-0.236 0.236l197.797 98.3 l-81.553-167.35"/>
			<path class="st15" d="M1350.226 1387.489l-1.768 1.768l-6.718 6.717l-0.325 0.326c-40.411-27.472-78-59.785-119.917-101.477 l-0.354-0.354l-29.311-29.311"/>
			<path class="st15" d="M958.488 1779.226l1.769-1.768l6.717-6.717l0.325-0.326c-27.471-40.41-59.785-78-101.476-119.917 l-0.354-0.354l-29.311-29.311"/>
			<line class="st4" x1="1169.2" y1="1393.1" x2="1163.5" y2="1398.8"/>
			<line class="st4" x1="964.1" y1="1598.2" x2="969.8" y2="1592.5"/>
			<line class="st4" x1="1309.9" y1="1108.9" x2="1296.5" y2="1095.5"/>
			<line class="st4" x1="679.9" y1="1738.9" x2="666.5" y2="1725.5"/>
			<polyline class="st4" points="1295.8,1118.8 1283,1106 1282.3,1105.4"/>
			<polyline class="st4" points="689.8,1724.8 677,1712 676.4,1711.3"/>
			<polyline class="st4" points="1264,1122.3 1264.3,1122.7 1277.4,1135.8"/>
			<polyline class="st4" points="693.3,1693 693.7,1693.3 706.8,1706.4"/>
			<polyline class="st4" points="1239.9,1145 1240.5,1145.5 1253.4,1158.4"/>
			<polyline class="st4" points="716,1668.9 716.5,1669.5 729.4,1682.4"/>
			<polyline class="st4" points="1219.4,1165.5 1220,1166 1232.8,1178.9"/>
			<polyline class="st4" points="736.5,1648.4 737,1649 749.9,1661.8"/>
			<polyline class="st4" points="1197.5,1188.8 1197.8,1189.1 1210.9,1202.2"/>
			<polyline class="st4" points="759.8,1626.5 760.1,1626.8 773.2,1639.9"/>
			<polyline class="st4" points="1193.2,1221.3 1180.5,1208.5 1179.8,1207.9"/>
			<polyline class="st4" points="792.3,1622.2 779.5,1609.5 778.9,1608.8"/>
			<line class="st4" x1="1183.3" y1="1235.5" x2="1169.9" y2="1222"/>
			<line class="st4" x1="806.5" y1="1612.3" x2="793" y2="1598.9"/>
			<path class="st15" d="M1307.748 1117.208c4.545-5.748 6.94-9.209 6.205-9.945l-0.177-0.176l-44.132-44.133l-3.08-3.08 l-43.723-43.723l-3.429-3.43"/>
			<path class="st15" d="M688.208 1736.747c-5.748 4.546-9.209 6.94-9.944 6.205l-0.177-0.177l-44.133-44.132l-3.079-3.08 l-43.724-43.723l-3.429-3.43"/>
			<path class="st15" d="M1243.595 1169.136c36.514-36.515 68.014-64.217 70.357-61.873"/>
			<path class="st15" d="M740.135 1672.595c-36.514 36.515-64.215 68.014-61.871 70.4"/>
			<path class="st15" d="M1181.724 1239.492c-2.344-2.344 25.357-33.843 61.872-70.356"/>
			<path class="st15" d="M810.492 1610.724c-2.344-2.344-33.843 25.357-70.357 61.9"/>
			<path class="st4" d="M1230.16 1155.7c36.514-36.514 68.014-64.216 70.357-61.872"/>
			<path class="st4" d="M726.7 1659.16c-36.515 36.515-64.216 68.013-61.872 70.4"/>
			<path class="st4" d="M1168.289 1226.058c-2.344-2.344 25.357-33.844 61.872-70.357"/>
			<path class="st4" d="M797.057 1597.288c-2.344-2.344-33.843 25.357-70.356 61.9"/>
			<path class="st15" d="M1190.46 1234.241c-5.056 3.896-8.058 5.93-8.736 5.251l-0.177-0.177l-44.281-44.281l-3.079-3.078 l-43.724-43.725l-3.281-3.28"/>
			<path class="st15" d="M805.241 1619.46c3.896-5.057 5.93-8.058 5.251-8.736l-0.177-0.177l-44.281-44.28l-3.079-3.08 l-43.724-43.723l-3.28-3.281"/>
			<path class="st15" d="M1302.087 1114.519c15.506 7.3 26.4 14 40.7 22.28l6.625-5.423l522.708-443.031 c1.088-0.92 2.29-1.711 3.514-2.439"/>
			<path class="st15" d="M685.518 1731.087c7.276 15.5 14 26.4 22.3 40.666l-5.424 6.625l-443.029 522.7 c-0.921 1.089-1.713 2.29-2.44 3.5"/>
			<path class="st15" d="M1881.794 682.427c127.208-68.972 227.3 17.1 160.7 158.5"/>
			<path class="st15" d="M253.427 2310.794c-68.972 127.2 17.1 227.3 158.5 160.7"/>
			<path class="st15" d="M1187.8 1229.308c5.442 10.9 8.9 16.7 16.3 25.464l0.002 0.002l-122.23 103.6 c-6.378 3.295-10.522 3.55-18.152 3.8"/>
			<path class="st15" d="M800.308 1616.8c10.893 5.4 16.7 8.9 25.5 16.273l0.002 0.002l103.576-122.23 c3.295-6.379 3.55-10.521 3.769-18.152"/>
			<path class="st4" d="M1297.737 1117.468c25.631 13.8 41 22.9 62.4 40.2"/>
			<path class="st4" d="M688.468 1726.737c13.846 25.6 22.9 41 40.2 62.4"/>
			<path class="st4" d="M1191.322 1225.011c13.722 24.5 24 37.9 42.9 58.5"/>
			<path class="st4" d="M796.01 1620.321c24.479 13.7 37.9 24 58.5 42.9"/>
			<circle class="st4" cx="1308.4" cy="1127.1" r="1"/>
			<circle class="st4" cx="698.1" cy="1737.4" r="1"/>
			<circle class="st4" cx="1200.9" cy="1234.6" r="1"/>
			<circle class="st4" cx="805.6" cy="1629.9" r="1"/>
			<circle class="st4" cx="1311.9" cy="1122.2" r="1"/>
			<circle class="st4" cx="693.2" cy="1740.9" r="1"/>
			<circle class="st4" cx="1196.6" cy="1238.9" r="1"/>
			<circle class="st4" cx="809.9" cy="1625.6" r="1"/>
			<circle class="st4" cx="1352.2" cy="1155.4" r="1"/>
			<circle class="st4" cx="726.4" cy="1781.2" r="1"/>
			<circle class="st4" cx="1231.3" cy="1276.4" r="1"/>
			<circle class="st4" cx="847.4" cy="1660.3" r="1"/>
			<circle class="st4" cx="1355.8" cy="1150.5" r="1"/>
			<circle class="st4" cx="721.5" cy="1784.8" r="1"/>
			<circle class="st4" cx="1227.8" cy="1279.9" r="1"/>
			<circle class="st4" cx="850.9" cy="1656.8" r="1"/>
			<g>
				<path class="st4" d="M1321.051 1256.93c-1.151-0.376-2.24-1.025-3.153-1.938c-3.125-3.125-3.119-8.194 0-11.313 c3.125-3.126 8.188-3.125 11.3 0c0.913 0.9 1.6 2 1.9 3.1"/>
				<line class="st4" x1="1321" y1="1256.9" x2="1329.5" y2="1259.7"/>
				<line class="st4" x1="1331.2" y1="1246.8" x2="1334" y2="1255.3"/>
				<path class="st4" d="M1333.95 1255.304c0.403 1.2 0.1 2.609-0.849 3.578c-0.961 0.961-2.355 1.252-3.571 0.8"/>
				<circle class="st4" cx="1330.6" cy="1256.4" r="1"/>
			</g>
			<g>
				<path class="st4" d="M827.93 1750.051c-0.376-1.151-1.025-2.24-1.938-3.153c-3.125-3.125-8.194-3.118-11.313 0 c-3.125 3.126-3.125 8.2 0 11.314c0.913 0.9 2 1.6 3.1 1.9"/>
				<line class="st4" x1="827.9" y1="1750" x2="830.7" y2="1758.5"/>
				<line class="st4" x1="817.8" y1="1760.2" x2="826.3" y2="1763"/>
				<path class="st4" d="M826.304 1762.949c1.223 0.4 2.6 0.1 3.577-0.849c0.962-0.961 1.252-2.355 0.842-3.57"/>
				<circle class="st4" cx="827.4" cy="1759.6" r="1"/>
			</g>
			<g>
				<path class="st4" d="M1259.533 1227.938c-1.152-0.376-2.241-1.025-3.153-1.938c-3.125-3.125-3.119-8.195 0-11.314 c3.125-3.125 8.188-3.125 11.3 0c0.912 0.9 1.6 2 1.9 3.1"/>
				<line class="st4" x1="1259.5" y1="1227.9" x2="1268" y2="1230.7"/>
				<line class="st4" x1="1269.6" y1="1217.8" x2="1272.4" y2="1226.3"/>
				<path class="st4" d="M1272.431 1226.312c0.403 1.2 0.1 2.609-0.848 3.578c-0.961 0.961-2.355 1.252-3.571 0.8"/>
				<circle class="st4" cx="1269.1" cy="1227.4" r="1"/>
			</g>
			<g>
				<path class="st4" d="M798.938 1688.532c-0.375-1.151-1.024-2.24-1.937-3.152c-3.126-3.125-8.196-3.119-11.314 0 c-3.125 3.125-3.125 8.2 0 11.314c0.912 0.9 2 1.6 3.1 1.9"/>
				<line class="st4" x1="798.9" y1="1688.5" x2="801.7" y2="1697"/>
				<line class="st4" x1="788.8" y1="1698.6" x2="797.3" y2="1701.4"/>
				<path class="st4" d="M797.312 1701.431c1.224 0.4 2.6 0.1 3.578-0.848c0.961-0.961 1.252-2.355 0.842-3.571"/>
				<circle class="st4" cx="798.4" cy="1698.1" r="1"/>
			</g>
			<polyline class="st4" points="1190.8,1319.3 1176.2,1309.8 1176.3,1309.7 1197.5,1288.5 1197.4,1288.6 1212,1298 1211.6,1298.4 1190.4,1319.6"/>
			<polyline class="st4" points="890.3,1619.8 880.8,1605.2 880.7,1605.3 859.5,1626.5 859.6,1626.4 869,1641 869.4,1640.6 890.6,1619.4"/>
			<g>
				<path class="st4" d="M1742.67 1105.353l6.781-6.78l0.29-0.29l-0.29 0.29c2.051-0.637 4.24-0.71 6.263-0.286 c2.014 0.4 4 1.5 5.6 3.064c4.299 4.3 4.3 11.3 0 15.596c-4.299 4.299-11.237 4.318-15.536 0 c-1.569-1.569-2.557-3.477-2.975-5.49c-0.424-2.023-0.437-4.299 0.292-6.258"/>
				<path class="st4" d="M1744.792 1108.889l0.325-0.325l7.453-7.453l0.028-0.027c2.588 0.2 4.6 0.8 6.3 2.5 c3.125 3.1 3.2 8.3 0.1 11.395c-3.125 3.125-8.148 3.165-11.274 0.039c-1.689-1.689-2.607-4.092-2.465-6.298"/>
				<circle class="st4" cx="1753.9" cy="1109.6" r="1"/>
			</g>
			<g>
				<path class="st4" d="M676.353 2171.671l-6.78 6.78l-0.29 0.29l0.29-0.29c-0.637 2.051-0.711 4.239-0.286 6.3 c0.417 2 1.5 4 3.1 5.58c4.3 4.3 11.3 4.3 15.6 0.04c4.299-4.3 4.318-11.237 0.02-15.536 c-1.569-1.569-3.477-2.557-5.49-2.975c-2.023-0.424-4.299-0.438-6.258 0.3"/>
				<path class="st4" d="M679.889 2173.792l-0.325 0.324l-7.453 7.453l-0.028 0.029c0.24 2.6 0.8 4.6 2.5 6.3 c3.126 3.1 8.3 3.2 11.4 0.079c3.125-3.125 3.165-8.148 0.039-11.274c-1.689-1.689-4.092-2.607-6.298-2.465"/>
				<circle class="st4" cx="680.6" cy="2182.9" r="1"/>
			</g>
			<g>
				<path class="st4" d="M1752.57 853.624l9.375-9.376l0.396-0.396l-0.396 0.396c3.246-0.418 5.722-1.026 8.481-0.448 c2.748 0.6 5.4 2 7.6 4.148c5.863 5.9 5.9 15.4 0 21.254c-5.862 5.862-15.331 5.883-21.193 0 c-2.141-2.141-3.49-4.744-4.06-7.491c-0.579-2.759-0.604-5.741 0.39-8.412"/>
				<path class="st4" d="M1755.398 857.866l0.315-0.314l10.163-10.164l0.039-0.039c3.015-0.186 6.4 1.2 8.7 3.5 c4.262 4.3 4.4 11.3 0.2 15.588c-4.262 4.263-11.085 4.343-15.348 0.08c-2.304-2.304-3.582-5.734-3.388-8.743"/>
				<circle class="st4" cx="1768" cy="859.1" r="1.4"/>
			</g>
			<g>
				<path class="st4" d="M424.623 2181.569l-9.375 9.376l-0.396 0.396l0.396-0.396c-0.418 3.246-1.027 5.722-0.448 8.5 c0.569 2.7 2 5.4 4.1 7.582c5.863 5.9 15.4 5.9 21.3 0.039c5.862-5.862 5.882-15.33 0.02-21.193 c-2.141-2.141-4.744-3.49-7.491-4.06c-2.76-0.579-5.741-0.604-8.412 0.4"/>
				<path class="st4" d="M428.866 2184.398l-0.315 0.315l-10.163 10.162l-0.038 0.039c-0.188 3 1.2 6.4 3.5 8.7 c4.262 4.3 11.3 4.4 15.6 0.16s4.343-11.086 0.08-15.348c-2.304-2.305-5.734-3.582-8.742-3.389"/>
				<circle class="st4" cx="430.1" cy="2197" r="1.4"/>
			</g>
			<g>
				<path class="st4" d="M2091.981 2339.962l6.781-6.781l0.29-0.29l-0.29 0.29c2.052-0.637 4.24-0.711 6.263-0.287 c2.014 0.4 4 1.5 5.6 3.064c4.299 4.3 4.3 11.3 0 15.596c-4.299 4.3-11.237 4.32-15.537 0 c-1.569-1.569-2.557-3.477-2.974-5.491c-0.424-2.022-0.437-4.298 0.292-6.257"/>
				<path class="st4" d="M2094.103 2343.497l0.325-0.325l7.453-7.452l0.028-0.029c2.588 0.2 4.6 0.8 6.3 2.5 c3.125 3.1 3.2 8.3 0.1 11.393c-3.125 3.126-8.149 3.166-11.274 0.041c-1.689-1.689-2.607-4.093-2.465-6.299"/>
				<circle class="st4" cx="2103.3" cy="2344.2" r="1"/>
			</g>
			<g>
				<path class="st4" d="M1910.961 2520.981l-6.781 6.78l-0.29 0.29l0.29-0.29c-0.636 2.052-0.71 4.239-0.286 6.3 c0.417 2 1.5 4 3.1 5.58c4.299 4.3 11.3 4.3 15.6 0.04c4.299-4.299 4.319-11.237 0.02-15.536 c-1.569-1.569-3.477-2.557-5.49-2.975c-2.023-0.424-4.299-0.437-6.258 0.3"/>
				<path class="st4" d="M1914.497 2523.103l-0.325 0.325l-7.453 7.452l-0.028 0.029c0.24 2.6 0.8 4.6 2.5 6.3 c3.125 3.1 8.3 3.2 11.4 0.079c3.125-3.125 3.165-8.148 0.04-11.274c-1.689-1.689-4.092-2.607-6.298-2.465"/>
				<circle class="st4" cx="1915.2" cy="2532.3" r="1"/>
			</g>
			<polyline class="st15" points="2046.6,753.8 1744.7,1187.3 1742.4,1190.6"/>
			<polyline class="st15" points="324.8,2475.6 758.3,2173.7 761.6,2171.4"/>
			<line class="st15" x1="1867.9" y1="1087.1" x2="1780.5" y2="1223.1"/>
			<line class="st15" x1="658.1" y1="2296.9" x2="794.1" y2="2209.5"/>
			<line class="st4" x1="1396.7" y1="1672.3" x2="1557.4" y2="1441.6"/>
			<line class="st4" x1="1243.3" y1="1825.7" x2="1012.6" y2="1986.4"/>
			<polyline class="st4" points="1557.4,1441.6 1581.4,1407.2 1599.4,1381.4 2040.7,747.9"/>
			<polyline class="st4" points="1012.6,1986.4 978.2,2010.4 952.4,2028.4 318.9,2469.7"/>
			<polyline class="st4" points="1396.2,1671.7 1396.7,1672.3 1478.2,1753.8 1483.2,1758.7"/>
			<polyline class="st4" points="1242.7,1825.2 1243.3,1825.7 1324.8,1907.2 1329.7,1912.2"/>
			<polyline class="st4" points="1469.6,1767.8 1478.2,1753.8 1665.7,1447.7 1792.5,1240.7"/>
			<polyline class="st4" points="1338.8,1898.6 1324.8,1907.2 1018.7,2094.7 811.7,2221.5"/>
			<polyline class="st4" points="1648.6,1474.5 1581.4,1407.2 1580.7,1406.6"/>
			<polyline class="st4" points="1045.5,2077.6 978.2,2010.4 977.6,2009.7"/>
			<path class="st15" d="M1448.126 1376.494c-164.403-68.942-66.822-166.524 2.121-2.121 C1450.634 1375.3 1449 1376.9 1448.1 1376.494z"/>
			<path class="st15" d="M947.494 1877.126c-68.943-164.402-166.524-66.822-2.121 2.1 C946.296 1879.6 947.9 1878 947.5 1877.126z"/>
			<line class="st21" x1="1125" y1="1003.8" x2="1125" y2="1003.8"/>
			<line class="st21" x1="574.8" y1="1554" x2="574.8" y2="1554"/>
			<path class="st21" d="M1124.978 1005.263c-1.172-1.172-12.014 7.772-24.218 19.977c-12.204 12.203-21.148 23.047-19.976 24.2 c-14.375-16.867-18.407-40.686-12.381-56.477C1084.015 985.6 1106.9 991.5 1125 1005.263z"/>
			<path class="st21" d="M576.263 1553.978c-1.172-1.172 7.772-12.014 19.977-24.218c12.203-12.204 23.046-21.147 24.218-19.976 c-16.867-14.375-40.685-18.408-56.476-12.382C556.566 1513 562.5 1535.9 576.3 1553.978z"/>
			<path class="st13" d="M1120.156 1001.926c-3.422 1.599-12.7 9.546-22.932 19.778c-10.649 10.648-18.816 20.258-19.948 23.3"/>
			<path class="st13" d="M572.926 1549.156c1.598-3.423 9.545-12.7 19.777-22.933c10.649-10.648 20.258-18.816 23.313-19.947"/>
			<path class="st4" d="M1090.719 1035.761c0.063 0 0.1 0 0.2 0"/>
			<path class="st4" d="M606.761 1519.719c0.007 0.1 0 0.1 0 0.2"/>
			<g>
				<path class="st21" d="M1092.969 1041.338c-55.316 54.519-85.979 78.223-134.603 144.503c-1.044 1.4 2.3 4.8 3.7 3.7 c50.683-37.493 74.969-51.489 108.115-91.771c10.835-14.648 22.173-28.273 35.304-43.752"/>
				<path class="st21" d="M1117.212 1017.095c54.519-55.316 78.223-85.979 144.503-134.603c1.422-1.044 4.8 2.3 3.7 3.7 c-37.494 50.684-51.489 74.969-91.77 108.114c-14.649 10.835-28.273 22.173-43.752 35.3"/>
				<path class="st21" d="M1105.526 1054.06c0.735-0.735-0.791-4.869-4.281-8.359c-3.49-3.489-7.624-5.016-8.359-4.28"/>
				<path class="st21" d="M1129.934 1029.651c-0.735 0.736-4.869-0.79-8.359-4.28c-3.49-3.489-5.016-7.624-4.281-8.358"/>
				<path class="st4" d="M1109.421 1060.417c-2.121 2.121-5.77 2.476-9.857 0.7"/>
				<path class="st4" d="M1136.292 1033.548c2.122-2.122 2.475-5.771 0.693-9.857"/>
				<path class="st4" d="M1104.217 1042.726c4.335 4.3 6.8 9.4 7 13.322c0.07 1.938-0.587 3.203-1.754 4.4"/>
				<path class="st4" d="M1118.6 1028.343c4.335 4.3 9.4 6.8 13.3 6.959c1.938 0.1 3.202-0.588 4.369-1.754"/>
				<path class="st4" d="M1090.903 1035.774c3.938 0.1 9 2.6 13.3 7"/>
				<path class="st4" d="M1111.649 1015.028c0.12 3.9 2.6 9 7 13.3"/>
				<path class="st4" d="M1086.144 1048.029c-0.855-1.775-1.378-3.515-1.555-5.105"/>
				<path class="st4" d="M1123.903 1010.27c-1.775-0.855-3.514-1.378-5.105-1.555"/>
				<path class="st4" d="M1110.581 1036.361c6.47 6.5 8.7 14.2 5.2 17.7"/>
				<path class="st4" d="M1112.236 1034.706c6.47 6.5 14.2 8.7 17.7 5.2"/>
				<path class="st4" d="M1096.666 1029.403c4.002-0.127 9.4 2.4 13.9 7"/>
				<path class="st4" d="M1105.278 1020.792c-0.127 4 2.4 9.4 7 13.9"/>
				<line class="st4" x1="1099.9" y1="1039.6" x2="1115.5" y2="1024"/>
				<line class="st4" x1="1107.7" y1="1047.4" x2="1123.2" y2="1031.8"/>
				<line class="st4" x1="1109.1" y1="1060.1" x2="1115.5" y2="1053.7"/>
				<line class="st4" x1="1136" y1="1033.2" x2="1129.6" y2="1039.6"/>
			</g>
			<g>
				<path class="st21" d="M612.338 1521.969c54.519-55.315 78.223-85.979 144.503-134.603c1.421-1.043 4.8 2.3 3.7 3.7 c-37.494 50.683-51.489 74.968-91.771 108.114c-14.648 10.836-28.273 22.174-43.752 35.3"/>
				<path class="st21" d="M588.095 1546.212c-55.316 54.52-85.979 78.223-134.603 144.503c-1.044 1.4 2.3 4.8 3.7 3.7 c50.683-37.494 74.968-51.488 108.114-91.77c10.835-14.648 22.173-28.273 35.304-43.752"/>
				<path class="st21" d="M625.06 1534.526c-0.735 0.735-4.869-0.791-8.359-4.281c-3.489-3.489-5.016-7.623-4.28-8.358"/>
				<path class="st21" d="M600.651 1558.935c0.736-0.736-0.79-4.869-4.28-8.359c-3.489-3.49-7.623-5.017-8.359-4.281"/>
				<path class="st4" d="M631.417 1538.421c2.121-2.121 2.476-5.77 0.693-9.856"/>
				<path class="st4" d="M604.547 1565.292c-2.121 2.121-5.77 2.475-9.856 0.7"/>
				<path class="st4" d="M613.725 1533.218c4.336 4.3 9.4 6.8 13.3 6.958c1.938 0.1 3.202-0.587 4.369-1.755"/>
				<path class="st4" d="M599.343 1547.6c4.335 4.3 6.8 9.4 7 13.322c0.07 1.938-0.588 3.202-1.755 4.4"/>
				<path class="st4" d="M606.774 1519.903c0.12 3.9 2.6 9 7 13.3"/>
				<path class="st4" d="M586.028 1540.649c3.938 0.1 9 2.6 13.3 7"/>
				<path class="st4" d="M619.029 1515.144c-1.775-0.855-3.515-1.378-5.105-1.555"/>
				<path class="st4" d="M581.27 1552.903c-0.855-1.775-1.378-3.515-1.555-5.105"/>
				<path class="st4" d="M607.361 1539.581c6.47 6.5 14.2 8.7 17.7 5.2"/>
				<path class="st4" d="M605.707 1541.235c6.47 6.5 8.7 14.2 5.2 17.7"/>
				<path class="st4" d="M600.403 1525.665c-0.127 4 2.4 9.4 7 13.9"/>
				<path class="st4" d="M591.791 1534.278c4.002-0.127 9.4 2.4 13.9 7"/>
				<line class="st4" x1="610.6" y1="1528.9" x2="595" y2="1544.5"/>
				<line class="st4" x1="618.4" y1="1536.7" x2="602.8" y2="1552.2"/>
				<line class="st4" x1="631.1" y1="1538.1" x2="624.7" y2="1544.5"/>
				<line class="st4" x1="604.2" y1="1565" x2="610.6" y2="1558.6"/>
			</g>
			<path class="st13" d="M1116.528 1053.114c1.669 3 1.8 6.2 0 7.918c-1.739 1.74-4.851 1.627-7.856-0.021"/>
			<path class="st13" d="M624.113 1545.528c3.025 1.7 6.2 1.8 7.9 0.043c1.74-1.74 1.627-4.852-0.021-7.857"/>
			<path class="st13" d="M1128.988 1040.653c3.025 1.7 6.2 1.8 7.9 0.043c1.739-1.739 1.626-4.851-0.022-7.855"/>
			<path class="st13" d="M611.653 1557.987c1.669 3 1.8 6.2 0 7.92c-1.739 1.739-4.851 1.626-7.856-0.021"/>
			<line class="st13" x1="1116.8" y1="1052.6" x2="1116.8" y2="1052.6"/>
			<line class="st13" x1="623.6" y1="1545.8" x2="623.6" y2="1545.8"/>
			<line class="st13" x1="1116.2" y1="1052.3" x2="1120.4" y2="1056.6"/>
			<line class="st13" x1="623.3" y1="1545.2" x2="627.6" y2="1549.4"/>
			<line class="st13" x1="1128.2" y1="1040.3" x2="1132.4" y2="1044.5"/>
			<line class="st13" x1="611.3" y1="1557.2" x2="615.5" y2="1561.4"/>
			<path class="st13" d="M1077.069 1074.261c-19.684 9.938-30.881 19.691-52.206 38.7"/>
			<path class="st13" d="M645.261 1506.069c9.938-19.684 19.691-30.881 38.66-52.206"/>
			<g>
				<circle class="st4" cx="1190.3" cy="1054.3" r="1"/>
				<circle class="st4" cx="1204.5" cy="1068.4" r="1"/>
				<circle class="st4" cx="1219.3" cy="1083.3" r="1"/>
				<circle class="st4" cx="1233.4" cy="1097.4" r="1"/>
				<path class="st4" d="M1212.447 1048.7c1.569-1.742 8.3 3.1 10.4 9.4"/>
				<path class="st4" d="M1189.897 1086.78c-6.305-2.145-11.72-8.227-9.978-9.795 C1181.489 1075.2 1187.8 1080.5 1189.9 1086.78z"/>
				<path class="st4" d="M1210.403 1112.943c-6.305-2.146-11.72-8.226-9.978-9.796 C1201.996 1101.4 1208.3 1106.6 1210.4 1112.943z"/>
				<path class="st4" d="M1231.539 1074.864c1.57-1.743 8.3 3.1 10.4 9.4"/>
				<path class="st4" d="M1249.923 1056.479c1.57-1.743 8.3 3.1 10.4 9.4"/>
				<path class="st4" d="M1225.175 1035.973c1.569-1.742 8.3 3.1 10.4 9.4"/>
			</g>
			<g>
				<circle class="st4" cx="625.3" cy="1619.3" r="1"/>
				<circle class="st4" cx="639.4" cy="1633.5" r="1"/>
				<circle class="st4" cx="654.3" cy="1648.3" r="1"/>
				<circle class="st4" cx="668.4" cy="1662.4" r="1"/>
				<path class="st4" d="M619.7 1641.446c-1.742 1.6 3.1 8.3 9.4 10.4"/>
				<path class="st4" d="M657.78 1618.897c-2.146-6.305-8.227-11.721-9.796-9.979 C646.242 1610.5 651.5 1616.8 657.8 1618.897z"/>
				<path class="st4" d="M683.943 1639.403c-2.146-6.305-8.226-11.72-9.796-9.978 C672.405 1631 677.6 1637.3 683.9 1639.403z"/>
				<path class="st4" d="M645.863 1660.538c-1.742 1.6 3.1 8.3 9.4 10.4"/>
				<path class="st4" d="M627.479 1678.923c-1.742 1.6 3.1 8.3 9.4 10.4"/>
				<path class="st4" d="M606.973 1654.175c-1.742 1.6 3.1 8.3 9.4 10.4"/>
			</g>
			<g>
				<circle class="st4" cx="1130.2" cy="1114.4" r="1"/>
				<circle class="st4" cx="1144.3" cy="1128.6" r="1"/>
				<circle class="st4" cx="1159.2" cy="1143.4" r="1"/>
				<circle class="st4" cx="1173.3" cy="1157.6" r="1"/>
				<path class="st4" d="M1124.575 1136.572c-1.743 1.6 3.1 8.3 9.4 10.4"/>
				<path class="st4" d="M1162.655 1114.022c-2.146-6.305-8.227-11.719-9.796-9.977 C1151.117 1105.6 1156.4 1111.9 1162.7 1114.022z"/>
				<path class="st4" d="M1188.817 1134.529c-2.145-6.306-8.226-11.72-9.795-9.978 C1177.28 1126.1 1182.5 1132.4 1188.8 1134.529z"/>
				<path class="st4" d="M1150.738 1155.665c-1.742 1.6 3.1 8.3 9.4 10.4"/>
				<path class="st4" d="M1132.353 1174.05c-1.742 1.6 3.1 8.3 9.4 10.4"/>
				<path class="st4" d="M1111.847 1149.3c-1.743 1.6 3.1 8.3 9.4 10.4"/>
			</g>
			<g>
				<circle class="st4" cx="685.4" cy="1559.2" r="1"/>
				<circle class="st4" cx="699.6" cy="1573.3" r="1"/>
				<circle class="st4" cx="714.4" cy="1588.2" r="1"/>
				<circle class="st4" cx="728.6" cy="1602.3" r="1"/>
				<path class="st4" d="M707.572 1553.575c1.569-1.742 8.3 3.1 10.4 9.4"/>
				<path class="st4" d="M685.023 1591.654c-6.306-2.146-11.721-8.226-9.979-9.796 C676.614 1580.1 682.9 1585.4 685 1591.654z"/>
				<path class="st4" d="M705.529 1617.817c-6.306-2.145-11.72-8.226-9.979-9.795 C697.121 1606.3 703.4 1611.5 705.5 1617.817z"/>
				<path class="st4" d="M726.664 1579.737c1.569-1.742 8.3 3.1 10.4 9.4"/>
				<path class="st4" d="M745.049 1561.353c1.569-1.742 8.3 3.1 10.4 9.4"/>
				<path class="st4" d="M720.3 1540.847c1.57-1.742 8.3 3.1 10.4 9.4"/>
			</g>
			<path class="st15" d="M1877.021 677.554c0 0-1.235-1.235 4.6 4.562c1.61 1.61-3.883 4.821-5.982 3.8 c-0.334-0.143-3.093-2.966-3.37-3.242"/>
			<path class="st15" d="M248.554 2306.021c0 0-1.235-1.235 4.6 4.562c1.609 1.6 4.82-3.882 3.79-5.981 c-0.144-0.334-2.966-3.094-3.242-3.37"/>
			<line class="st4" x1="1872.1" y1="683.2" x2="1877" y2="678.3"/>
			<line class="st4" x1="254.2" y1="2301.1" x2="249.3" y2="2306"/>
			<path class="st4" d="M1877.693 678.227c-1.367-1.366-3.583-1.367-4.95-0.001"/>
			<path class="st4" d="M249.227 2306.693c-1.367-1.366-1.368-3.583 0-4.95"/>
			<path class="st4" d="M1872.744 678.226c-1.367 1.367-1.367 3.6 0 5"/>
			<path class="st4" d="M249.227 2301.743c1.367-1.367 3.583-1.366 4.9 0"/>
			<g>
				<path class="st4" d="M2185.616 2422.324c-16.118-16.875-13.341-19.652 3.535-3.534 C2190.838 2420.4 2187.2 2424 2185.6 2422.324z"/>
				<path class="st4" d="M2186.38 2427.996c-0.781 0.781-2.047 0.781-2.828 0l-14.85-14.85c-0.781-0.781-0.781-2.047 0-2.828 l7.778-7.778c0.781-0.781 2.047-0.781 2.8 0l14.85 14.85c0.781 0.8 0.8 2 0 2.828L2186.38 2427.996z"/>
				<line class="st4" x1="2191.7" y1="2422" x2="2189.6" y2="2419.9"/>
				<line class="st4" x1="2188.9" y1="2424.8" x2="2186.7" y2="2422.7"/>
				<circle class="st4" cx="2196.1" cy="2430" r="1.5"/>
			</g>
			<g>
				<path class="st4" d="M1993.324 2614.616c-16.875-16.118-19.652-13.342-3.535 3.5 C1991.4 2619.8 1995 2616.2 1993.3 2614.616z"/>
				<path class="st4" d="M1998.997 2615.379c0.375-0.375 0.585-0.884 0.585-1.414s-0.21-1.039-0.585-1.414l-14.85-14.85 c-0.375-0.375-0.884-0.586-1.414-0.586s-1.039 0.211-1.414 0.586l-7.779 7.779c-0.781 0.781-0.781 2 0 2.828l14.85 14.8 c0.781 0.8 2 0.8 2.8 0L1998.997 2615.379z"/>
				<line class="st4" x1="1993" y1="2620.7" x2="1990.9" y2="2618.6"/>
				<line class="st4" x1="1995.8" y1="2617.9" x2="1993.7" y2="2615.7"/>
				<circle class="st4" cx="2001" cy="2625.1" r="1.5"/>
			</g>
			<line class="st15" x1="2194.5" y1="2617.9" x2="2188.9" y2="2623.5"/>
			<line class="st4" x1="1389.8" y1="1950.3" x2="1520.6" y2="1819.5"/>
			<path class="st15" d="M1872.743 2309.521c31.82 62.2 276.2 277.1 286 278.2 c-1.153-9.824-216.021-254.205-278.247-286.025c-1.632-0.834-6.822-2.534-8.567-0.789S1871.91 2307.9 1872.7 2309.521z"/>
			<path class="st15" d="M1552.424 1981.425c-1.549 1.549-3.161 3.004-4.815 4.377c-5.473 4.496-11.498 8.004-17.826 10.5 c-5.487 2.164-11.202 3.563-16.985 4.2c-1.309 0.148-2.616 0.255-3.924 0.318c-17.536 0.92-35.37-5.077-49.059-17.988 c-0.489-0.46-0.962-0.92-1.436-1.394c-0.233-0.233-0.474-0.474-0.7-0.714c-25.271-26.021-25.039-67.592 0.7-93.331 s67.31-25.972 93.331-0.7c0.24 0.2 0.5 0.5 0.7 0.7c0.474 0.5 0.9 0.9 1.4 1.4 c12.911 13.7 18.9 31.5 18 49.06c-0.063 1.307-0.17 2.615-0.319 3.924c-0.134 1.252-0.311 2.49-0.516 3.7 c-0.701 4.164-1.804 8.266-3.295 12.262c-0.134 0.332-0.255 0.664-0.389 0.997c-0.261 0.671-0.544 1.351-0.834 2 C1563.222 1968.3 1558.5 1975.3 1552.4 1981.425z"/>
			<polyline class="st4" points="1473.3,1964.5 1472.9,1964.8 1457.7,1980"/>
			<line class="st4" x1="1475.4" y1="1962.4" x2="1533.4" y2="1904.4"/>
			<polyline class="st4" points="1551,1886.7 1535.8,1901.9 1535.5,1902.3"/>
			<line class="st4" x1="1459.8" y1="1982.2" x2="1474.7" y2="1967.3"/>
			<line class="st4" x1="1476.8" y1="1965.2" x2="1501.5" y2="1940.4"/>
			<line class="st4" x1="1537.6" y1="1904.4" x2="1553.2" y2="1888.8"/>
			<path class="st4" d="M1476.41 1905.41c15.775-15.775 41.21-16.009 57.269-0.7"/>
			<path class="st4" d="M1476.41 1905.41c-15.655 15.655-16.001 41.501-1.039 57.6"/>
			<path class="st4" d="M1473.935 1902.581c9.808-9.807 23.038-13.888 35.843-12.494"/>
			<path class="st4" d="M1536.139 1902.249c-2.404-2.263-4.999-4.221-7.735-5.869c-2.278-1.371-4.646-2.538-7.086-3.479 c-0.007-0.007-0.007-0.007-0.021-0.007"/>
			<path class="st4" d="M1463.612 1949.774c2.057 5.6 5.3 10.8 9.6 15.4"/>
			<path class="st4" d="M1473.935 1902.581c-9.886 9.887-14.177 23.257-12.869 36.2"/>
			<line class="st4" x1="1473.6" y1="1965.5" x2="1473.6" y2="1965.5"/>
			<line class="st4" x1="1508.6" y1="2000.6" x2="1474.7" y2="1966.6"/>
			<line class="st4" x1="1571.6" y1="1937.6" x2="1537.6" y2="1903.7"/>
			<polyline class="st4" points="1543.3,1981.5 1538.6,1976.8 1502.2,1940.4 1501.5,1939.7"/>
			<line class="st4" x1="1523.8" y1="1918.1" x2="1523.8" y2="1918.1"/>
			<polyline class="st4" points="1536.2,1930.5 1539.7,1934 1565.9,1960.2"/>
			<line class="st4" x1="1570.8" y1="1941.2" x2="1548.2" y2="1918.5"/>
			<line class="st4" x1="1543.3" y1="1982.2" x2="1565.2" y2="1960.2"/>
			<polyline class="st4" points="1476.8,1964.5 1511.5,1999.2 1512.2,1999.8"/>
			<g>
				
					<rect x="1568.6" y="1983" transform="matrix(0.7071 0.7071 -0.7071 0.7071 1875.4745 -552.8892)" class="st17" width="73" height="9"/>
				
					<rect x="1630.2" y="2011.5" transform="matrix(0.7072 0.7071 -0.7071 0.7072 1902.8859 -564.3293)" class="st17" width="5" height="7"/>
				
					<rect x="1632.3" y="2019.6" transform="matrix(0.7071 0.7071 -0.7071 0.7071 1910.2543 -567.2271)" class="st17" width="15" height="5"/>
				<line class="st12" x1="1576.9" y1="1959.2" x2="1628.5" y2="2010.8"/>
				<line class="st12" x1="1576.9" y1="1963.4" x2="1627.1" y2="2013.6"/>
				<line class="st12" x1="1581.1" y1="1959.2" x2="1631.3" y2="2009.4"/>
				<line class="st4" x1="1631.7" y1="2008.3" x2="1625.3" y2="2014.7"/>
				
					<rect x="1554.7" y="1915.6" transform="matrix(0.7071 -0.7071 0.7071 0.7071 -916.6201 1672.219)" class="st17" width="11" height="54"/>
			</g>
			<line class="st4" x1="1546.1" y1="1921.4" x2="1548.2" y2="1919.2"/>
			<polyline class="st4" points="1538.3,1929.1 1536.5,1930.9 1536.2,1931.3"/>
			<line class="st4" x1="1548.9" y1="1924.2" x2="1551" y2="1922.1"/>
			<polyline class="st4" points="1541.1,1932 1539.4,1933.7 1539,1934.1"/>
			<line class="st4" x1="1538.6" y1="1976.8" x2="1511.5" y2="1999.2"/>
			<line class="st4" x1="1567.3" y1="1942.6" x2="1559.5" y2="1950.3"/>
			<path class="st4" d="M1528.404 1896.38c-0.022-0.006-0.029-0.014-0.05-0.021"/>
			<path class="st4" d="M1489.965 1869.708c10.933 10.8 21.9 18.2 31.4 23.2"/>
			<path class="st4" d="M1440.708 1918.966c10.833 10.9 18.2 21.9 23.2 31.4"/>
			<path class="st4" d="M1486.073 1870.757c7.3 7.7 14.4 13.6 23.7 19.3"/>
			<path class="st4" d="M1441.757 1915.073c7.744 7.3 13.5 14.4 19.3 23.7"/>
			<line class="st15" x1="720.2" y1="1796.2" x2="701.8" y2="1777.8"/>
			<line class="st15" x1="1367.2" y1="1149.2" x2="1348.8" y2="1130.8"/>
			<line class="st4" x1="966.3" y1="1525.4" x2="1096.4" y2="1395.3"/>
			<line class="st4" x1="1086.5" y1="1399.5" x2="1093.5" y2="1392.4"/>
			<line class="st4" x1="970.5" y1="1515.5" x2="963.4" y2="1522.5"/>
			<line class="st4" x1="1072.3" y1="1413.7" x2="1084.4" y2="1401.6"/>
			<line class="st4" x1="984.7" y1="1501.3" x2="972.6" y2="1513.4"/>
			<line class="st4" x1="1053.2" y1="1366.3" x2="1060.3" y2="1359.2"/>
			<line class="st4" x1="937.3" y1="1482.2" x2="930.2" y2="1489.3"/>
			<polyline class="st4" points="1051.1,1368.4 1040.5,1379 1039.1,1380.4"/>
			<polyline class="st4" points="939.4,1480.1 950,1469.5 951.4,1468.1"/>
			<line class="st4" x1="1050.4" y1="1363.4" x2="1057.5" y2="1356.4"/>
			<line class="st4" x1="934.4" y1="1479.4" x2="927.4" y2="1486.5"/>
			<polyline class="st4" points="1049,1364.9 1038.1,1375.7 1036.3,1377.6"/>
			<polyline class="st4" points="935.9,1478 946.7,1467.1 948.6,1465.3"/>
			<polyline class="st4" points="1010.8,1326.7 1009.2,1328.3 998.1,1339.4"/>
			<polyline class="st4" points="897.7,1439.8 899.3,1438.2 910.4,1427.1"/>
			<path class="st4" d="M986.773 1438.4l-0.283 0.283c-8.054-0.432-14.442 5.089-13.417 13.7 c0.127 1.1 0.5 2.4 0.8 3.566c1.499 4.8 5.1 10.3 11.2 15.631c1.555 1.4 3.1 2.6 5 3.9 c0.099 6.4 0.3 12.9 0.5 19.78l12.375-12.375l14.142-14.143c-0.368-1.047-1.106-2.393-1.75-3.588 c-7.835-14.707-16.501-22.313-24.012-25.129c0.05-0.586 0.14-1.134 0.189-1.721c0.134-1.534 0.068-3.162 0.225-4.746"/>
			<line class="st4" x1="985.4" y1="1494.3" x2="916.8" y2="1425.7"/>
			<polyline class="st4" points="996.7,1345.8 997.2,1346.3 1065.3,1414.4"/>
			<polyline class="st4" points="990.3,1495.7 990.7,1495.3 1003,1482.9 1017.2,1468.8 1066,1420"/>
			<polyline class="st4" points="916.1,1421.4 992.4,1345.1 992.4,1345.1"/>
			<line class="st4" x1="897" y1="1434.9" x2="1005.9" y2="1326"/>
			<polyline class="st4" points="870.8,1296.3 871.5,1296.9 887.8,1313.2"/>
			<polyline class="st4" points="867.3,1299.8 867.9,1300.5 884.2,1316.8"/>
			<polyline class="st4" points="927.4,1352.8 953.2,1378.7 949.6,1382.2 923.8,1356.4"/>
			<polyline class="st4" points="924.5,1350 891.2,1316.7 890.6,1316.1"/>
			<polyline class="st4" points="921,1353.5 887.7,1320.2 887.1,1319.6"/>
			<path class="st4" d="M849.931 1350.349c6.922-19.588 11.278-31.043 15.573-52.309l0.354-0.354l2.828-2.828l0.354-0.354 c21.267-4.296 32.642-8.732 52.229-15.654"/>
			<path class="st4" d="M921.508 1279.091c29.254 8.2 47 12.1 75.7 16.3"/>
			<path class="st4" d="M850.09 1350.509c8.237 29.3 12.1 47 16.3 75.7"/>
			<path class="st4" d="M871.479 1296.944c19.262-4.511 30.159-7.544 47.469-13.626"/>
			<path class="st4" d="M867.944 1300.479c-4.511 19.262-7.544 30.159-13.626 47.5"/>
			<path class="st4" d="M1000.704 1298.89c-2.949-0.432-5.819-0.855-8.62-1.295"/>
			<path class="st4" d="M869.89 1429.704c-0.432-2.949-0.856-5.818-1.295-8.619"/>
			<path class="st4" d="M922.215 1282.626c24.996 7 43.7 10.9 66.4 14.4"/>
			<path class="st4" d="M853.626 1351.215c7.035 25 10.9 43.7 14.4 66.4"/>
			<line class="st4" x1="1086.5" y1="1398.8" x2="1053.2" y2="1365.6"/>
			<line class="st4" x1="969.8" y1="1515.5" x2="936.6" y2="1482.2"/>
			<line class="st4" x1="1050.4" y1="1362.7" x2="1009.4" y2="1321.7"/>
			<line class="st4" x1="933.7" y1="1479.4" x2="892.7" y2="1438.4"/>
			<line class="st4" x1="1048.3" y1="1364.9" x2="1010.1" y2="1326.7"/>
			<line class="st4" x1="935.9" y1="1477.3" x2="897.7" y2="1439.1"/>
			<line class="st4" x1="1085.1" y1="1401.6" x2="1051.1" y2="1367.7"/>
			<line class="st4" x1="972.6" y1="1514.1" x2="938.7" y2="1480.1"/>
			<line class="st4" x1="1007.6" y1="1324.2" x2="1007.6" y2="1324.2"/>
			<path class="st4" d="M992.069 1297.587c6.028 10.1 10.1 15.8 17.6 24.5"/>
			<path class="st4" d="M868.587 1421.069c10.097 6 15.8 10.1 24.5 17.6"/>
			<path class="st4" d="M1006.262 1322.606c-7.673-9.088-12.523-16.385-17.6-25.534c-0.007-0.007-0.008-0.022-0.015-0.028"/>
			<path class="st4" d="M893.605 1435.263c-9.087-7.674-16.384-12.523-25.533-17.602c-0.007-0.006-0.022-0.006-0.029-0.014"/>
			<line class="st4" x1="922.2" y1="1282.6" x2="942.8" y2="1304.4"/>
			<line class="st4" x1="853.6" y1="1351.2" x2="875.4" y2="1371.8"/>
			<path class="st4" d="M942.78 1304.37c24.408 9.2 38.6 13.3 63.8 18.3"/>
			<path class="st4" d="M875.369 1371.78c9.242 24.4 13.3 38.6 18.3 63.8"/>
			<line class="st4" x1="918.9" y1="1283.3" x2="937.1" y2="1303"/>
			<line class="st4" x1="854.3" y1="1348" x2="874" y2="1366.1"/>
			<path class="st4" d="M937.124 1302.955c-17.305 5.827-29.646 8.544-49.145 10.5"/>
			<path class="st4" d="M873.955 1366.124c5.827-17.305 8.544-29.645 10.489-49.145"/>
			<path class="st4" d="M937.359 1306.255c-17.601 5.838-27.762 8.346-46.375 10.4"/>
			<path class="st4" d="M877.255 1366.358c5.838-17.6 8.346-27.76 10.431-46.374"/>
			<path class="st4" d="M937.359 1306.255c-1.698 16.381-4.448 28.826-12.729 43.8"/>
			<path class="st4" d="M877.255 1366.358c16.381-1.697 28.825-4.447 43.841-12.727"/>
			<path class="st4" d="M941.249 1307.787c-1.736 17.976-5.941 28.736-13.554 45.4"/>
			<path class="st4" d="M878.787 1370.249c17.977-1.736 28.736-5.941 45.373-13.553"/>
			<path class="st4" d="M941.484 1307.552c23.938 9.4 39.5 13.2 64.6 18.9"/>
			<path class="st4" d="M878.552 1370.484c9.372 23.9 13.2 39.5 18.9 64.6"/>
			<line class="st4" x1="1036.3" y1="1376.9" x2="998.1" y2="1338.7"/>
			<line class="st4" x1="947.9" y1="1465.3" x2="909.7" y2="1427.1"/>
			<line class="st4" x1="1072.3" y1="1412.9" x2="1039.1" y2="1379.7"/>
			<line class="st4" x1="983.9" y1="1501.3" x2="950.7" y2="1468.1"/>
			
				<rect x="842.2" y="1216.1" transform="matrix(0.7071 0.7071 -0.7071 0.7071 1128.4993 -249.2744)" class="st4" width="46" height="43"/>
			
				<rect x="785.6" y="1272.7" transform="matrix(0.7071 0.7071 -0.7071 0.7071 1151.9534 -192.7007)" class="st4" width="46" height="43"/>
			
				<ellipse transform="matrix(0.7071 0.7071 -0.7071 0.7071 1122.1444 -262.52)" class="st4" cx="878" cy="1223.3" rx="0.8" ry="0.5"/>
			
				<ellipse transform="matrix(0.7071 0.7071 -0.7071 0.7071 1156.803 -178.8455)" class="st4" cx="794.3" cy="1307" rx="0.8" ry="0.5"/>
			<path class="st4" d="M753.04 1138.199c-26.163-24.396-35.002-15.557-10.606 10.6"/>
			<path class="st4" d="M709.199 1182.04c-24.396-26.163-15.557-35.002 10.606-10.607"/>
			
				<ellipse transform="matrix(0.788 0.6157 -0.6157 0.788 889.2255 -263.0841)" class="st18" cx="826.6" cy="1159.7" rx="5.4" ry="2.7"/>
			
				<ellipse transform="matrix(0.6157 0.788 -0.788 0.6157 1270.2955 -93.2148)" class="st18" cx="730.7" cy="1255.6" rx="5.4" ry="2.7"/>
			<g>
				
					<rect x="706.7" y="1132.3" transform="matrix(-0.7071 -0.7071 0.7071 -0.7071 464.8257 2466.1768)" class="st17" width="73" height="9"/>
				
					<rect x="713.1" y="1105.7" transform="matrix(-0.707 -0.7072 0.7072 -0.707 437.0705 2399.5613)" class="st17" width="5" height="7"/>
				
					<rect x="701" y="1099.7" transform="matrix(-0.7071 -0.7071 0.7071 -0.7071 430.1782 2382.5283)" class="st17" width="15" height="5"/>
				<line class="st12" x1="771.5" y1="1165.1" x2="719.8" y2="1113.5"/>
				<line class="st12" x1="771.5" y1="1160.9" x2="721.3" y2="1110.7"/>
				<line class="st12" x1="767.2" y1="1165.1" x2="717" y2="1114.9"/>
				<line class="st4" x1="716.7" y1="1116" x2="723" y2="1109.6"/>
				
					<rect x="782.6" y="1154.7" transform="matrix(-0.7071 0.7072 -0.7072 -0.7071 2180.9495 1459.9824)" class="st17" width="11" height="54"/>
			</g>
			<g>
				
					<rect x="689.7" y="1181.8" transform="matrix(-0.7071 -0.7071 0.7071 -0.7071 400.8552 2538.6733)" class="st17" width="73" height="9"/>
				
					<rect x="696.1" y="1155.2" transform="matrix(-0.7071 -0.7071 0.7071 -0.7071 373.2781 2472.0962)" class="st17" width="5" height="7"/>
				
					<rect x="684.1" y="1149.2" transform="matrix(-0.7071 -0.7071 0.7071 -0.7071 366.2073 2455.0259)" class="st17" width="15" height="5"/>
				<line class="st12" x1="754.5" y1="1214.6" x2="702.9" y2="1163"/>
				<line class="st12" x1="754.5" y1="1210.4" x2="704.3" y2="1160.2"/>
				<line class="st12" x1="750.2" y1="1214.6" x2="700" y2="1164.4"/>
				<line class="st4" x1="699.7" y1="1165.5" x2="706.1" y2="1159.1"/>
				
					<rect x="765.6" y="1204.2" transform="matrix(-0.7071 0.7071 -0.7071 -0.7071 2186.9629 1556.5669)" class="st17" width="11" height="54"/>
			</g>
			<path class="st17" d="M823.432 1246.067l-89.449-89.449l8.132-8.131c3.411 3.7 14.266-7.195 10.606-10.607l7.071-7.07 c45.976 23.3 72.1 39.6 113.6 65.994l0.233-0.234l-0.288 0.289l-11.519 11.519l-38.397 38.4"/>
			<path class="st17" d="M817.067 1252.432l-89.449-89.448l-8.131 8.131c3.658 3.412-7.195 14.266-10.607 10.607l-7.07 7.1 c23.32 46 39.6 72.1 66 113.611l-0.233 0.232l0.289-0.289l11.519-11.518l38.397-38.397"/>
			<circle class="st4" cx="855.3" cy="1308.8" r="2.5"/>
			<line class="st4" x1="856.7" y1="1306.9" x2="865.1" y2="1298.4"/>
			<path class="st4" d="M1003.355 1483.267c-1.302-0.621-2.553-1.265-3.748-1.908c-3.458-1.832-6.52-3.72-9.227-5.636 c-1.903-1.351-3.629-2.708-5.184-4.065c-6.174-5.367-9.709-10.77-11.208-15.592c-0.382-1.202-0.629-2.369-0.757-3.486 c-1.025-8.648 4.929-14.602 13.576-13.576c0.12 0 0.2 0 0.4 0.041c1.004 0.1 2 0.4 3.1 0.7 c0.389 0.1 0.8 0.3 1.2 0.41c7.51 2.8 16.3 10.5 24.1 25.209c0.645 1.2 1.3 2.4 1.9 3.7"/>
			<path class="st4" d="M992.72 1345.411c1.293 29.2 1.4 45.975-2.682 73.627c-27.652 4.122-44.429 3.975-73.627 2.7"/>
			<path class="st4" d="M997.228 1346.324c1.759 27.6 1.4 43.711-2.711 71.5"/>
			<path class="st4" d="M917.324 1426.228c27.622 1.8 43.7 1.4 71.535-2.711"/>
			<path class="st4" d="M994.517 1417.86c27.131-3.102 43.549-4.512 71.064-3.183"/>
			<path class="st4" d="M985.678 1494.581c-0.41-8.485-0.559-15.902-0.48-22.924"/>
			<path class="st4" d="M987.177 1439.044c0.48-4.85 1.047-9.955 1.683-15.527"/>
			<path class="st4" d="M990.981 1495.642c-0.29-7.008-0.503-13.541-0.601-19.919"/>
			<path class="st4" d="M1066.642 1419.981c-25.583-1.061-44.958-1.131-73.306 2.354c-0.48 3.96-0.905 7.75-1.259 11.4 c-0.155 1.584-0.297 3.14-0.431 4.674c-0.05 0.587-0.1 1.174-0.149 1.8"/>
			<line class="st4" x1="999.5" y1="1480.8" x2="1015.1" y2="1465.3"/>
			<polyline class="st4" points="990.3,1439.1 973.7,1455.7 973.3,1456.1"/>
			<polyline class="st4" points="986.8,1438.4 986.5,1438.7 972.9,1452.3 972.6,1452.5"/>
			<path class="st4" d="M2033.431 2443.239c2.381-4.595 2.49-7.063 2.419-9.501c-14.04-11.118-23.541-16.745-30.448-19.995"/>
			<path class="st4" d="M2014.239 2462.431c-4.595 2.381-7.062 2.49-9.501 2.419c-11.117-14.04-16.746-23.54-19.995-30.448"/>
			<circle class="st4" cx="2060.4" cy="2453" r="1.9"/>
			<circle class="st4" cx="2024" cy="2489.4" r="1.9"/>
			<line class="st4" x1="2061.5" y1="2451.5" x2="2035.8" y2="2435.4"/>
			<line class="st4" x1="2022.5" y1="2490.5" x2="2006.4" y2="2464.8"/>
			<line class="st4" x1="2058.9" y1="2454" x2="2035.2" y2="2439.2"/>
			<line class="st4" x1="2025" y1="2487.9" x2="2010.2" y2="2464.2"/>
			<path class="st4" d="M2059.341 2454.526c-0.171 4.123-2.106 7.009-5.654 10.5"/>
			<path class="st4" d="M2025.527 2488.341c4.123-0.17 7.008-2.105 10.52-5.653"/>
			<path class="st4" d="M2061.982 2453.967c1.825 6.5 1.4 11.877-1.638 18.3"/>
			<path class="st4" d="M2024.967 2490.982c6.468 1.8 11.9 1.4 18.331-1.638"/>
			<path class="st15" d="M2016.761 2438.989c19.821 0.7 94.1 88.7 115.6 122.3 c-33.618-21.426-121.632-95.739-122.334-115.56C2009.874 2442.5 2013.5 2438.9 2016.8 2438.989z"/>
			<g>
				<g>
					
						<ellipse transform="matrix(0.7071 0.7071 -0.7071 0.7071 1361.2778 -312.9158)" class="st4" cx="1058.3" cy="1486.6" rx="3.2" ry="2"/>
					
						<ellipse transform="matrix(0.7071 0.7071 -0.7071 0.7071 1370.9851 -317.0486)" class="st4" cx="1068.2" cy="1496.5" rx="3.2" ry="2"/>
				</g>
				<g>
					
						<ellipse transform="matrix(0.7071 0.7071 -0.7071 0.7071 2249.8525 -681.1147)" class="st4" cx="1947.2" cy="2375.5" rx="3.2" ry="2"/>
					
						<ellipse transform="matrix(0.7071 0.7071 -0.7071 0.7071 2260.0776 -685.1829)" class="st4" cx="1957.1" cy="2385.4" rx="3.2" ry="2"/>
				</g>
				<line class="st4" x1="1065.3" y1="1493.6" x2="1060.3" y2="1488.6"/>
				<line class="st4" x1="1944.2" y1="2372.5" x2="1070.2" y2="1498.5"/>
				<line class="st4" x1="1967.5" y1="2395.8" x2="1959" y2="2387.3"/>
				<line class="st4" x1="1954.1" y1="2382.4" x2="1949.1" y2="2377.4"/>
				<line class="st4" x1="1055.4" y1="1483.7" x2="1051.1" y2="1479.4"/>
				<path class="st4" d="M1051.086 1479.379c-2.344 2.344-7.43 1.057-10.489-2.003c-3.059-3.059-3.64-7.438-1.296-9.781 c2.344-2.344 6.724-1.764 9.8 1.295C1052.143 1471.9 1053.4 1477 1051.1 1479.379z"/>
				<polyline class="st4" points="1038.4,1468.1 1014.7,1444.4 1016.8,1442.3 1040.5,1466"/>
			</g>
			<polyline class="st4" points="1831.1,1047.4 1837.6,1053.9 1837.4,1053.7"/>
			<polyline class="st4" points="618.4,2260.1 624.9,2266.6 624.7,2266.4"/>
			<line class="st4" x1="1835.3" y1="1055.9" x2="1829.6" y2="1050.2"/>
			<line class="st4" x1="626.9" y1="2264.3" x2="621.2" y2="2258.6"/>
			<line class="st4" x1="1763.9" y1="1158.4" x2="1758.2" y2="1152.7"/>
			<line class="st4" x1="729.4" y1="2192.9" x2="723.7" y2="2187.2"/>
			<polyline class="st4" points="1756.1,1154.9 1762.7,1161.4 1762.5,1161.2"/>
			<polyline class="st4" points="725.9,2185.1 726.5,2185.7 732.2,2191.5"/>
			<line class="st4" x1="1938.5" y1="907.4" x2="1932.9" y2="901.7"/>
			<line class="st4" x1="478.4" y1="2367.5" x2="472.7" y2="2361.9"/>
			<polyline class="st4" points="1931.5,904.5 1937.4,910.5 1937.1,910.2"/>
			<polyline class="st4" points="475.5,2360.5 481.5,2366.4 481.2,2366.1"/>
			<polyline class="st4" points="1993.7,814 2000.1,820.5 2000.1,820.4"/>
			<polyline class="st4" points="385,2422.7 391.5,2429.1 391.4,2429.1"/>
			<line class="st4" x1="1997.9" y1="822.5" x2="1992.3" y2="816.9"/>
			<line class="st4" x1="393.5" y1="2426.9" x2="387.9" y2="2421.3"/>
				<ellipse transform="matrix(0.7071 0.7071 -0.7071 0.7071 1252.064 -1051.0133)" class="st4" cx="1894.6" cy="985.8" rx="6.2" ry="2.7"/>
				<ellipse transform="matrix(0.7071 0.7071 -0.7071 0.7071 1806.0017 286.8217)" class="st4" cx="556.8" cy="2323.6" rx="6.2" ry="2.7"/>
			<line class="st4" x1="1890.5" y1="980.9" x2="1835.3" y2="925.7"/>
			<g>
				<line class="st4" x1="551.9" y1="2319.5" x2="496.7" y2="2264.3"/>
			</g>
		</g>
	</g>
</switch>

</svg>
