<?xml version="1.0" encoding="utf-8"?>
<!-- Generator: Adobe Illustrator 16.0.0, SVG Export Plug-In . SVG Version: 6.00 Build 0)  -->
<!DOCTYPE svg PUBLIC "-//W3C//DTD SVG 1.1//EN" "http://www.w3.org/Graphics/SVG/1.1/DTD/svg11.dtd">
<svg version="1.1" id="Layer_1" xmlns="http://www.w3.org/2000/svg" xmlns:xlink="http://www.w3.org/1999/xlink" x="0px" y="0px"
	 width="512px" height="512px" viewBox="0 0 512 512" enable-background="new 0 0 512 512" xml:space="preserve">
<path d="M255.5,251.719l45.875,79.406l-27.688,16L223.5,260.281V160h32V251.719z M431.5,224v64h-35.188
	c-7.938,38.875-30.25,72.219-60.813,95.281V512h-192V383.281c-38.625-29.219-64-75.094-64-127.281s25.375-98.063,64-127.281V0h192
	v128.719c30.563,23.094,52.875,56.406,60.813,95.281H431.5z M367.5,256c0-70.563-57.375-128-128-128c-70.563,0-128,57.438-128,128
	c0,70.594,57.438,128,128,128C310.125,384,367.5,326.594,367.5,256z"/>
</svg>
